<?xml version="1.0" encoding="UTF-8"?>
<svg version="1.1" xmlns="http://www.w3.org/2000/svg" width="512" height="512">
<path d="M0 0 C0.97051306 -0.00453111 1.94102612 -0.00906223 2.94094867 -0.01373065 C6.1958441 -0.02639978 9.45057274 -0.02475264 12.70549011 -0.02310181 C15.03804744 -0.02908549 17.37060279 -0.03589066 19.70315552 -0.04345703 C26.04204797 -0.06114069 32.38088645 -0.06581342 38.71980119 -0.0670886 C44.01056766 -0.06898698 49.30132153 -0.07634383 54.59208316 -0.08343279 C66.36144436 -0.09907673 78.13078217 -0.10476991 89.90015284 -0.10342209 C90.60612898 -0.10334218 91.31210513 -0.10326227 92.03947449 -0.10317993 C92.74631481 -0.10309817 93.45315514 -0.10301641 94.18141486 -0.10293217 C105.63443388 -0.10211942 117.08732134 -0.12125475 128.54030231 -0.14945666 C140.30619773 -0.17819998 152.07202901 -0.19199615 163.83796042 -0.19026911 C170.44120559 -0.18975905 177.04430188 -0.19546683 183.64751625 -0.21662521 C189.85851182 -0.2359831 196.06921613 -0.23614854 202.28022194 -0.22159195 C204.55863876 -0.21949972 206.8370737 -0.22422929 209.11545944 -0.23631287 C212.22843851 -0.25175222 215.34041168 -0.24246511 218.45336914 -0.22705078 C219.80236769 -0.24248147 219.80236769 -0.24248147 221.17861873 -0.25822389 C228.13947711 -0.18217726 233.38782006 1.61279486 238.65934753 6.23226929 C239.19817566 6.88324585 239.73700378 7.53422241 240.29216003 8.20492554 C240.84645691 8.85332397 241.40075378 9.50172241 241.97184753 10.16976929 C244.71335105 14.14865412 245.66772672 17.67556286 245.64852905 22.47769165 C245.64957642 23.50649948 245.65062378 24.53530731 245.65170288 25.59529114 C245.64286575 26.71331619 245.63402863 27.83134125 245.62492371 28.98324585 C245.62372528 30.16920853 245.62252686 31.3551712 245.62129211 32.57707214 C245.61814277 35.15141841 245.61083184 37.72576217 245.59985924 40.30008698 C245.58265402 44.37761052 245.5859635 48.45495754 245.59350586 52.53250122 C245.61266025 64.12571747 245.61944354 75.71870477 245.57170105 87.31185913 C245.5454834 93.71904825 245.54429639 100.12573353 245.57084829 106.53292727 C245.58379691 109.91887463 245.58393994 113.30372908 245.55298424 116.68958282 C245.52407176 120.47186943 245.53844497 124.25175713 245.56242371 128.0340271 C245.54346542 129.14395523 245.52450714 130.25388336 245.50497437 131.39744568 C245.62243959 139.4636126 248.03259405 143.42199861 253.41716003 149.26742554 C255.12419128 152.05258179 255.12419128 152.05258179 256.22966003 154.32992554 C256.796203 155.46107788 256.796203 155.46107788 257.37419128 156.61508179 C260.6325857 164.90141065 260.66333648 172.44018732 260.54216003 181.26742554 C260.5331366 182.51910522 260.52411316 183.77078491 260.51481628 185.06039429 C260.49138719 188.12960564 260.45858151 191.1984131 260.41716003 194.26742554 C261.21025574 194.56399048 262.00335144 194.86055542 262.82048035 195.16610718 C265.62604933 196.35602084 266.5146171 197.21001494 268.16716003 199.70492554 C268.77817566 200.60017944 268.77817566 200.60017944 269.40153503 201.51351929 C272.65428851 207.13077432 272.02703077 214.01625049 271.41716003 220.26742554 C269.36688009 225.97639471 265.31517963 229.8687997 260.41716003 233.26742554 C255.98452383 235.24796512 252.24356429 235.46048171 247.41716003 235.26742554 C247.30372253 236.14914429 247.19028503 237.03086304 247.07341003 237.93930054 C245.15563598 247.66515466 238.34990204 255.51955665 231.41716003 262.26742554 C230.42716003 262.92742554 229.43716003 263.58742554 228.41716003 264.26742554 C228.03331495 267.20340092 227.81331703 269.94769927 227.72966003 272.89242554 C227.69549988 273.69422241 227.66133972 274.49601929 227.62614441 275.32211304 C227.54359126 277.30338872 227.47870088 279.28538591 227.41716003 281.26742554 C228.54380066 281.48140991 229.67044128 281.69539429 230.83122253 281.91586304 C237.8512984 283.4835061 244.63762898 285.80754905 251.44548035 288.10580444 C253.00350094 288.62806228 254.56439768 289.14182085 256.12809753 289.64682007 C269.98448749 294.12273728 282.39587335 299.63576717 289.41716003 313.26742554 C293.02608332 321.32263109 294.00075148 328.33813752 293.9506073 337.1109314 C293.95922287 338.34481598 293.96783844 339.57870056 293.97671509 340.84997559 C293.99538872 344.19900142 293.99632172 347.54702764 293.98739362 350.89602733 C293.98225014 353.69968454 293.98960199 356.50325472 293.99686569 359.30690295 C294.01379365 365.9172766 294.01036477 372.52741892 293.99357605 379.13778687 C293.97659705 385.95064315 293.99258361 392.76286139 294.02479893 399.57564825 C294.05147954 405.44090023 294.05877698 411.30595337 294.05028385 417.17125994 C294.04535797 420.6679315 294.04755363 424.16421786 294.06807137 427.66084099 C294.08981185 431.55071058 294.07104746 435.43980522 294.04826355 439.3296814 C294.05995575 440.48556259 294.07164795 441.64144379 294.08369446 442.83235168 C294.0710405 443.89055115 294.05838654 444.94875061 294.04534912 446.03901672 C294.04476281 446.95758422 294.0441765 447.87615171 294.04357243 448.82255459 C293.13344851 452.3747441 291.51113337 453.40402813 288.41716003 455.26742554 C285.63110638 455.75961685 285.63110638 455.75961685 282.53890991 455.7484436 C280.77424881 455.75669159 280.77424881 455.75669159 278.97393799 455.7651062 C277.69216171 455.7507251 276.41038544 455.73634399 275.08976746 455.7215271 C273.71958957 455.7203982 272.34940927 455.72103331 270.97923279 455.72329712 C267.26662453 455.72444357 263.55453446 455.70094605 259.8420465 455.67300129 C255.95966588 455.64797582 252.07727305 455.64564474 248.19482422 455.64089966 C240.8460631 455.62847321 233.49754034 455.59565621 226.14888412 455.5555017 C217.78136736 455.51077359 209.41383915 455.48879436 201.04623258 455.46871996 C183.83640392 455.42692318 166.62680719 455.3565777 149.41716003 455.26742554 C149.42604248 455.92253113 149.43492493 456.57763672 149.44407654 457.25259399 C149.53251053 464.06555463 149.59287814 470.87835247 149.6368866 477.69174194 C149.65701275 480.23510357 149.68431641 482.77841887 149.71891785 485.32162476 C149.76738973 488.97554958 149.7901192 492.62886309 149.80778503 496.28305054 C149.82843018 497.4217157 149.84907532 498.56038086 149.87034607 499.73355103 C149.87064819 500.79434875 149.87095032 501.85514648 149.8712616 502.9480896 C149.88014404 503.88074646 149.88902649 504.81340332 149.8981781 505.77432251 C149.23530526 509.20997371 148.30624514 510.29105345 145.41716003 512.26742554 C142.55560052 512.66023239 140.07904047 512.80811065 137.21842957 512.77536011 C136.38478945 512.78160007 135.55114933 512.78784003 134.69224739 512.79426908 C131.89453605 512.81024366 129.09769058 512.79757754 126.29997253 512.78500366 C124.29604076 512.7904228 122.29211297 512.79754428 120.28819275 512.8062439 C114.84195469 512.8245049 109.39601916 512.81739819 103.9497757 512.80472755 C98.2554644 512.7946143 92.56117935 512.80398857 86.86686707 512.81027222 C77.30350586 512.8175535 67.74026813 512.80794826 58.17692566 512.78890991 C47.113728 512.76714032 36.05082517 512.77419134 24.98763466 512.79621553 C15.49624924 512.81435579 6.00495268 512.81693457 -3.48644447 512.80646086 C-9.15841633 512.80021838 -14.83024952 512.79941104 -20.50221252 512.81260681 C-25.83417848 512.82414464 -31.16576357 512.81617726 -36.49768829 512.79302979 C-38.45687476 512.78773165 -40.41609318 512.78927526 -42.37526703 512.79808044 C-45.04531683 512.80897597 -47.71413843 512.79534537 -50.3841095 512.77536011 C-51.1634831 512.78428299 -51.94285671 512.79320588 -52.7458477 512.80239916 C-56.23540981 512.75156957 -58.2070343 512.55032371 -61.03276062 510.42317963 C-63.25296304 507.33545998 -63.70775191 504.86380759 -63.69636536 501.16317749 C-63.69628983 500.34255325 -63.69621429 499.52192902 -63.69613647 498.67643738 C-63.69097519 497.79509628 -63.6858139 496.91375519 -63.68049622 496.00570679 C-63.67837379 494.64701729 -63.67837379 494.64701729 -63.6762085 493.26087952 C-63.67060998 490.36719463 -63.65805777 487.47358705 -63.64533997 484.57992554 C-63.64032477 482.61833811 -63.6357619 480.65674948 -63.63166809 478.69515991 C-63.62064104 473.88588532 -63.60337743 469.07666854 -63.58283997 464.26742554 C-64.35736637 464.27111271 -65.13189278 464.27479988 -65.92988968 464.27859879 C-84.76637161 464.36689436 -103.6028123 464.4331081 -122.43945694 464.47467422 C-131.54868751 464.49530903 -140.65778003 464.5234471 -149.766922 464.56918335 C-157.70545217 464.6090231 -165.64388239 464.63485167 -173.58250976 464.64377952 C-177.78691082 464.64899915 -181.99102589 464.661286 -186.19533539 464.69034576 C-190.15159402 464.71746981 -194.10744849 464.72587675 -198.06379128 464.71985626 C-199.51666013 464.72095786 -200.96954233 464.72893001 -202.42233086 464.74424744 C-204.4045474 464.76412396 -206.38698017 464.75698566 -208.36927795 464.7484436 C-209.47911671 464.75213078 -210.58895546 464.75581795 -211.73242569 464.75961685 C-215.31740862 464.14058492 -216.48292092 463.21297893 -218.58283997 460.26742554 C-219.08899784 457.76287842 -219.08899784 457.76287842 -219.09750366 454.89389038 C-219.11022812 453.80347946 -219.12295258 452.71306854 -219.13606262 451.58961487 C-219.12953674 450.39790176 -219.12301086 449.20618866 -219.11628723 447.97836304 C-219.12921059 446.08982353 -219.12921059 446.08982353 -219.14239502 444.16313171 C-219.16490562 440.71005609 -219.16194316 437.25743855 -219.15307355 433.80431747 C-219.14795802 430.91477964 -219.15526195 428.02532747 -219.16254562 425.13579845 C-219.17955471 418.30899247 -219.17597446 411.48240986 -219.15925598 404.65560913 C-219.14238809 397.63686549 -219.15809253 390.61874621 -219.19047886 383.60007095 C-219.21728763 377.55904188 -219.22441892 371.51820579 -219.21596378 365.47712326 C-219.21106046 361.87613854 -219.21310552 358.27552802 -219.2337513 354.67459106 C-219.2557377 350.64655528 -219.23658353 346.61967664 -219.21394348 342.59164429 C-219.22563568 341.41612503 -219.23732788 340.24060577 -219.24937439 339.02946472 C-219.1088425 326.66908982 -214.53710553 316.47862209 -205.99690247 307.62289429 C-196.28495076 298.61768085 -182.74239065 295.45194532 -170.45783997 291.45492554 C-168.62427563 290.85211209 -166.79094011 290.2486022 -164.95783997 289.64437866 C-160.50210521 288.17734809 -156.04337589 286.71978927 -151.58283997 285.26742554 C-151.47292023 282.52544473 -151.39251272 279.78788877 -151.32893372 277.04476929 C-151.29489441 276.27113037 -151.2608551 275.49749146 -151.2257843 274.70040894 C-151.15773817 270.78827977 -151.14856175 268.87751105 -153.47468567 265.60971069 C-155.6550933 263.77837572 -155.6550933 263.77837572 -158.12971497 262.07601929 C-165.08117168 256.95098034 -169.08022881 248.35039325 -171.58283997 240.26742554 C-171.58283997 239.60742554 -171.58283997 238.94742554 -171.58283997 238.26742554 C-172.21190247 238.25324585 -172.84096497 238.23906616 -173.48908997 238.22445679 C-181.36970634 237.78532606 -186.32462038 235.52564512 -191.89533997 229.95492554 C-195.5887142 224.07288508 -197.5856138 218.24618938 -196.58283997 211.26742554 C-195.11235209 205.52399827 -192.72645827 200.18064626 -187.48323059 196.98959351 C-185.33231619 195.39039916 -185.33231619 195.39039916 -185.10041809 192.65463257 C-185.10492981 191.62193237 -185.10944153 190.58923218 -185.11408997 189.52523804 C-185.1029718 188.38248413 -185.09185364 187.23973022 -185.08039856 186.06234741 C-185.08120422 184.85127319 -185.08200989 183.64019897 -185.08283997 182.39242554 C-184.72893876 164.02808282 -180.89402231 150.83221797 -167.28205872 137.72836304 C-165.58283997 136.26742554 -165.58283997 136.26742554 -163.58283997 135.26742554 C-163.57919434 134.30800049 -163.57554871 133.34857544 -163.5717926 132.3600769 C-163.5347745 123.29722345 -163.47692762 114.23470765 -163.39893723 105.17211151 C-163.35950855 100.5134393 -163.32729753 95.8549548 -163.31184387 91.19613647 C-163.29664682 86.69605545 -163.26214751 82.19649065 -163.21453094 77.69664001 C-163.1997485 75.98398843 -163.19180076 74.27126314 -163.19095612 72.55854797 C-163.17310688 54.50562277 -163.17310688 54.50562277 -156.61799622 47.02523804 C-155.96701965 46.48640991 -155.31604309 45.94758179 -154.64533997 45.39242554 C-153.99694153 44.83812866 -153.34854309 44.28383179 -152.68049622 43.71273804 C-148.73900133 40.99699668 -145.22251971 40.01686655 -140.46386719 40.0269165 C-139.45570953 40.02416718 -138.44755188 40.02141785 -137.40884399 40.01858521 C-136.31408249 40.02577576 -135.21932098 40.03296631 -134.09138489 40.04037476 C-132.34927734 40.03993668 -132.34927734 40.03993668 -130.57197571 40.03948975 C-126.73567721 40.04088234 -122.89957326 40.05644056 -119.06330872 40.07211304 C-116.40244213 40.07584341 -113.7415863 40.07878866 -111.08071899 40.08068848 C-104.79451783 40.08689879 -98.50838643 40.1033035 -92.22221595 40.12338746 C-85.06384216 40.14576045 -77.90546501 40.1567434 -70.74706495 40.16677833 C-56.02562098 40.18767014 -41.30423169 40.22283738 -26.58283997 40.26742554 C-26.60378723 39.61258179 -26.6247345 38.95773804 -26.64631653 38.28305054 C-26.73014379 35.27800225 -26.78170891 32.2732009 -26.83283997 29.26742554 C-26.86635559 28.2374646 -26.89987122 27.20750366 -26.93440247 26.14633179 C-27.03386983 18.33814408 -25.90487479 13.05837582 -20.61799622 7.02523804 C-19.64153137 6.21699585 -19.64153137 6.21699585 -18.64533997 5.39242554 C-17.99694153 4.83812866 -17.34854309 4.28383179 -16.68049622 3.71273804 C-11.26452272 -0.0189383 -6.36510118 -0.02175881 0 0 Z " fill="#010101" transform="translate(218.5828399658203,-0.267425537109375)"/>
<path d="M0 0 C0.93587779 -0.00638882 1.87175557 -0.01277764 2.83599329 -0.01936007 C5.97390081 -0.03462807 9.11054941 -0.01413625 12.24841309 0.00622559 C14.49717121 0.00272495 16.74592687 -0.00293298 18.99467468 -0.0105896 C25.10418762 -0.02485526 31.21325146 -0.00775818 37.32272148 0.01569557 C43.71189088 0.03577889 50.10104117 0.02992632 56.49023438 0.02758789 C67.22042909 0.02764149 77.95040738 0.04728997 88.68054199 0.07946777 C99.71932389 0.11255884 110.75792243 0.12672602 121.79675293 0.1204834 C135.10096816 0.11299667 148.40506614 0.12036879 161.70927429 0.14213562 C166.79051337 0.15031714 171.87171203 0.15301778 176.95295715 0.15144348 C182.93494573 0.15056549 188.91671474 0.16475806 194.8986454 0.19067001 C197.09606677 0.1978412 199.29351149 0.19991088 201.490942 0.19655228 C204.48663238 0.19284651 207.48167875 0.207554 210.47729492 0.22705078 C211.35034728 0.22172286 212.22339963 0.21639493 213.12290812 0.21090555 C217.80575476 0.26361804 220.94440925 0.56040605 224.73864746 3.62145996 C225.91281881 5.96980265 225.86193798 7.34503474 225.85890198 9.96206665 C225.86096397 11.3292836 225.86096397 11.3292836 225.86306763 12.72412109 C225.85947235 13.7268103 225.85587708 14.72949951 225.85217285 15.76257324 C225.85231888 16.81625092 225.8524649 17.86992859 225.85261536 18.95553589 C225.85191666 22.45096876 225.84412627 25.94634886 225.83630371 29.44177246 C225.83443938 31.8603004 225.83301555 34.27882872 225.83201599 36.69735718 C225.82819202 43.07274411 225.81836275 49.44810837 225.80731201 55.82348633 C225.79709531 62.3251515 225.79251781 68.82682033 225.78747559 75.32849121 C225.77674039 88.09282382 225.75985676 100.85714068 225.73864746 113.62145996 C222.49877706 113.11654417 219.49989122 112.54753457 216.36071777 111.57556152 C212.43571773 110.54166424 208.81034104 110.33238806 204.78552246 110.35583496 C204.04465393 110.35392151 203.3037854 110.35200806 202.54046631 110.35003662 C200.98070941 110.34868327 199.42094093 110.35231995 197.86120605 110.36071777 C195.50888905 110.37136831 193.15734636 110.36082539 190.80505371 110.34802246 C173.17351709 110.32830991 158.16920181 113.25223863 144.99255371 125.97302246 C133.81656387 139.10529476 131.27492353 152.67308373 131.38708496 169.51599121 C131.26864141 178.05379702 131.26864141 178.05379702 128.37536621 181.15270996 C127.50524902 181.63739746 126.63513184 182.12208496 125.73864746 182.62145996 C121.73906222 187.69747679 119.94903744 192.67465614 120.32067871 199.13317871 C121.28014193 204.84512332 123.3130339 209.71743753 127.73864746 213.55895996 C131.74146495 216.31089699 134.62794352 217.81757432 139.48864746 218.24645996 C140.28786621 218.32122559 141.08708496 218.39599121 141.91052246 218.47302246 C142.81544434 218.54649902 142.81544434 218.54649902 143.73864746 218.62145996 C144.09056152 219.5276709 144.44247559 220.43388184 144.80505371 221.36755371 C148.46646568 230.40158586 152.07355798 238.76906119 160.67614746 244.05895996 C162.83471492 245.72124964 163.63523276 246.92995809 164.03942871 249.63269043 C164.34910321 254.9778934 164.09110468 260.28425057 163.73864746 265.62145996 C157.95918776 268.06591561 152.10829031 270.21046894 146.14880371 272.17224121 C145.13600845 272.50830887 145.13600845 272.50830887 144.10275269 272.85116577 C141.30149633 273.78031671 138.50034386 274.70882244 135.69104004 275.61340332 C121.576736 280.17260098 110.54729866 285.32564845 102.73864746 298.62145996 C100.3209516 303.44842765 99.29371654 308.29279682 98.73864746 313.62145996 C92.37434572 312.30910144 86.31743718 310.60926581 80.17614746 308.49645996 C78.94928223 308.0807373 78.94928223 308.0807373 77.69763184 307.65661621 C75.70988178 306.98240859 73.72405397 306.30253792 71.73864746 305.62145996 C70.2611087 285.87800609 70.2611087 285.87800609 73.53161621 280.88317871 C75.85684553 279.25123385 78.23511566 277.9574991 80.73864746 276.62145996 C86.6985986 270.60745031 91.1475411 261.85459419 93.59020996 253.82067871 C94.73864746 251.62145996 94.73864746 251.62145996 97.05895996 250.87145996 C97.98450684 250.78895996 98.91005371 250.70645996 99.86364746 250.62145996 C106.81193152 249.64706102 111.35487025 247.19343011 116.11364746 242.05895996 C120.53593457 235.4255293 120.43703849 229.50709028 119.73864746 221.62145996 C118.44265714 216.68583215 116.35191003 213.95331459 112.13317871 211.18395996 C109.69680057 209.13855842 108.83912032 208.06253301 108.12512207 204.92810059 C107.93011373 201.64385897 107.92440768 198.41077011 107.98864746 195.12145996 C107.96450403 192.77630623 107.93202688 190.43122268 107.89099121 188.08630371 C107.86561279 186.40576904 107.86561279 186.40576904 107.83972168 184.69128418 C107.32860449 169.16764278 100.71034909 157.31886905 89.73864746 146.62145996 C75.95909111 133.81545922 59.53930749 132.366379 41.61364746 131.99645996 C40.0693567 131.9581932 38.52508531 131.91913673 36.98083496 131.87927246 C33.23361833 131.78423529 29.48625329 131.69986709 25.73864746 131.62145996 C25.73317902 129.97560913 25.73317902 129.97560913 25.7276001 128.29650879 C25.69060348 117.93865875 25.63277966 107.58110473 25.55474472 97.22348022 C25.51529377 91.89893388 25.48309351 86.57455233 25.46765137 81.24987793 C25.45246924 76.10792573 25.41799569 70.96642666 25.37033844 65.82467651 C25.35554075 63.86640367 25.34760737 61.90806612 25.34676361 59.94973755 C25.34438736 57.19919954 25.31725502 54.44990711 25.2845459 51.69958496 C25.28957626 50.89613144 25.29460663 50.09267792 25.29978943 49.26487732 C25.17789588 42.60758347 23.1505847 37.47600012 18.84411621 32.37927246 C18.21118652 31.84044434 17.57825684 31.30161621 16.92614746 30.74645996 C16.30095215 30.19216309 15.67575684 29.63786621 15.03161621 29.06677246 C8.98812763 25.2574185 2.21941934 25.23553631 -4.69885254 24.99645996 C-5.62117676 24.95778809 -6.54350098 24.91911621 -7.49377441 24.87927246 C-9.74944397 24.7857732 -12.00512169 24.70002087 -14.26135254 24.62145996 C-14.39666098 21.55747545 -14.49559323 18.4994887 -14.57385254 15.43395996 C-14.61574707 14.56964355 -14.6576416 13.70532715 -14.70080566 12.81481934 C-14.71691895 11.97370605 -14.73303223 11.13259277 -14.74963379 10.26599121 C-14.77581787 9.4961792 -14.80200195 8.72636719 -14.82897949 7.93322754 C-12.91998641 0.15849398 -6.66364786 -0.09554356 0 0 Z " fill="#F1AB56" transform="translate(222.2613525390625,15.3785400390625)"/>
<path d="M0 0 C1.25335648 -0.0112088 2.50671295 -0.0224176 3.79804993 -0.03396606 C5.17929541 -0.0210561 6.56053626 -0.00764202 7.94177246 0.00622559 C9.40236556 0.00272308 10.86295485 -0.00293697 12.3235321 -0.0105896 C16.28444302 -0.02482899 20.24465901 -0.00778496 24.20550346 0.01569557 C28.35249436 0.03581408 32.49945667 0.0299245 36.64648438 0.02758789 C43.61042735 0.02764145 50.5740989 0.04739183 57.53796387 0.07946777 C65.58658225 0.11636019 73.63484511 0.12514323 81.68353701 0.11817026 C89.4293882 0.11186269 97.1751176 0.12262425 104.92094421 0.14213562 C108.21589393 0.15030552 111.51078136 0.15301992 114.80574036 0.15144348 C118.68659242 0.15056384 122.56710719 0.16480184 126.44787025 0.19067001 C127.87125831 0.19782561 129.29468227 0.19991834 130.71808434 0.19655228 C132.6625838 0.19283137 134.60709037 0.20944302 136.55151367 0.22705078 C138.18302494 0.23264385 138.18302494 0.23264385 139.84749603 0.23834991 C143.1860126 0.67513452 145.07926517 1.63601755 147.77575684 3.62145996 C149.4013907 6.87272769 148.90484643 10.44683971 148.88928223 14.01843262 C148.88942825 14.88679245 148.88957428 15.75515228 148.88972473 16.64982605 C148.88902644 19.52841668 148.88123793 22.4069431 148.87341309 25.28552246 C148.87154861 27.27806564 148.87012485 29.27060928 148.86912537 31.26315308 C148.86530252 36.5140509 148.85547421 41.76492118 148.84442139 47.01580811 C148.83420227 52.3713341 148.82962667 57.72686453 148.82458496 63.08239746 C148.81385175 73.59543041 148.7967781 84.1084429 148.77575684 94.62145996 C147.67368896 95.15980469 146.57162109 95.69814941 145.43615723 96.25280762 C143.97762622 96.97181004 142.51921795 97.69106147 141.06091309 98.41052246 C140.33601685 98.76380615 139.61112061 99.11708984 138.86425781 99.4810791 C125.59701135 106.04857393 117.99559177 116.91694952 112.77575684 130.62145996 C111.19508213 135.46447163 110.55126628 139.56930676 110.60778809 144.65661621 C110.60069824 145.96050293 110.5936084 147.26438965 110.58630371 148.60778809 C110.58212482 150.6512648 110.5883976 152.69272361 110.62121582 154.73596191 C110.77659744 166.20257508 110.77659744 166.20257508 108.24963379 169.78503418 C106.49594324 171.26729029 104.72179798 172.41371353 102.77575684 173.62145996 C98.26050463 179.17869344 98.1644584 184.17333334 98.39685059 191.24255371 C99.12424823 197.72914093 101.43729096 201.63760901 106.21325684 205.99645996 C111.76010523 210.32370532 116.91079957 211.05311927 123.77575684 211.62145996 C124.18825684 212.66044434 124.60075684 213.69942871 125.02575684 214.76989746 C130.49619377 228.43073871 130.49619377 228.43073871 140.56896973 238.8260498 C143.62550751 240.97719027 145.50846211 242.41317634 146.33776855 246.1619873 C146.46428243 249.13582547 146.38769127 252.02532398 146.21325684 254.99645996 C146.1816748 256.01868652 146.15009277 257.04091309 146.11755371 258.09411621 C146.03538228 260.6062143 145.92060031 263.1123253 145.77575684 265.62145996 C141.56015353 267.05138043 137.34261041 268.47537797 133.12316895 269.8939209 C131.68805041 270.37732242 130.25347454 270.86233813 128.81945801 271.34899902 C126.75812069 272.04824117 124.69490142 272.74165473 122.63122559 273.43395996 C120.76953735 274.06237793 120.76953735 274.06237793 118.87023926 274.70349121 C115.77575684 275.62145996 115.77575684 275.62145996 112.77575684 275.62145996 C112.62880371 275.00399902 112.48185059 274.38653809 112.33044434 273.75036621 C109.65040414 263.63090409 103.97423485 254.20857314 94.96472168 248.46740723 C85.65522664 243.63325685 75.5709022 240.62501129 65.65075684 237.30895996 C63.72084535 236.65793087 61.7911557 236.00624377 59.86169434 235.35388184 C55.16890728 233.76880348 50.47320024 232.19268257 45.77575684 230.62145996 C45.65229786 227.55772305 45.56200042 224.49898277 45.49060059 221.43395996 C45.45237183 220.56964355 45.41414307 219.70532715 45.37475586 218.81481934 C45.29806182 214.42749991 45.29449338 212.29815726 47.90222168 208.63146973 C49.58581585 207.2423105 51.32382586 205.91748209 53.09997559 204.64880371 C60.29917581 199.19422719 63.87310026 189.9327934 66.77575684 181.62145996 C67.33263184 181.60728027 67.88950684 181.59310059 68.46325684 181.57849121 C76.08088611 181.10238938 81.48274369 178.38291875 86.65075684 172.74645996 C90.28490533 167.40212394 91.53598112 162.02906466 90.77575684 155.62145996 C88.92074284 150.55002685 87.2891839 146.58146966 82.63513184 143.62927246 C80.31195579 141.78576604 79.82274194 140.87006523 79.26257324 137.90612793 C79.10159101 134.46819349 79.10015003 131.06272272 79.15075684 127.62145996 C78.97168802 112.72136036 77.35788055 99.00713923 66.06091309 87.94177246 C64.77575684 86.62145996 64.77575684 86.62145996 64.77575684 84.62145996 C64.19825684 84.34946777 63.62075684 84.07747559 63.02575684 83.79724121 C60.77919096 82.62325453 58.83327021 81.28584929 56.77575684 79.80895996 C46.98915762 73.1981446 37.38193924 70.46028626 25.74841309 70.48864746 C24.88187607 70.48769073 24.01533905 70.48673401 23.12254333 70.48574829 C21.29446337 70.48506945 19.46638096 70.48690305 17.63830566 70.49108887 C14.85138488 70.49643478 12.06462572 70.49113717 9.27770996 70.48474121 C7.49711065 70.48540217 5.71651144 70.48668371 3.93591309 70.48864746 C3.1076149 70.48662323 2.27931671 70.484599 1.42591858 70.48251343 C0.64168015 70.48566559 -0.14255829 70.48881775 -0.95056152 70.49206543 C-1.63275253 70.49286102 -2.31494354 70.49365662 -3.01780701 70.49447632 C-5.79793059 70.65447652 -8.48567795 71.12852648 -11.22424316 71.62145996 C-11.34019257 63.10257009 -11.42898552 54.58401094 -11.48330402 46.06452656 C-11.50937698 42.10836693 -11.54473125 38.15274791 -11.60144043 34.19689941 C-11.65584496 30.37783194 -11.68568102 26.55928376 -11.69862938 22.73985863 C-11.70785436 21.28416965 -11.72586934 19.8285085 -11.75289345 18.37304115 C-11.78930059 16.33063417 -11.79418433 14.29036094 -11.79187012 12.24768066 C-11.80297318 11.08630081 -11.81407623 9.92492096 -11.82551575 8.72834778 C-10.56432775 2.21155368 -6.25549213 -0.00409782 0 0 Z " fill="#F1AB56" transform="translate(83.2242431640625,55.3785400390625)"/>
<path d="M0 0 C1.27116394 1.81517029 1.27116394 1.81517029 2.18823242 4.21264648 C2.71854317 5.55425087 2.71854317 5.55425087 3.25956726 6.92295837 C3.62121475 7.89584305 3.98286224 8.86872772 4.35546875 9.87109375 C4.74317947 10.86375748 5.1308902 11.8564212 5.53034973 12.87916565 C6.76827631 16.05834394 7.97877795 19.24711689 9.1875 22.4375 C10.4118875 25.62215515 11.64181183 28.8045582 12.87678528 31.98512268 C13.64424759 33.9666349 14.40461316 35.95091285 15.15727234 37.93809509 C15.50135635 38.83565018 15.84544037 39.73320526 16.19995117 40.65795898 C16.50019699 41.44992172 16.80044281 42.24188446 17.10978699 43.05784607 C17.94464003 45.17674866 17.94464003 45.17674866 20 47 C25.41184254 47.44359365 28.51982193 47.36013356 33 44 C33.26554687 44.56589844 33.53109375 45.13179688 33.8046875 45.71484375 C34.15789062 46.44832031 34.51109375 47.18179688 34.875 47.9375 C35.22304687 48.66839844 35.57109375 49.39929688 35.9296875 50.15234375 C36.8684977 52.16332459 36.8684977 52.16332459 39 53 C39.27030223 60.92564766 38.21915214 68.4466403 37.03125 76.2734375 C36.82867955 77.64658195 36.6269125 79.01984513 36.42590332 80.39321899 C35.68393698 85.45183267 34.9292638 90.50852769 34.17205811 95.56488037 C33.5307298 99.84866602 32.89580667 104.1333017 32.26963806 108.4193306 C31.97671466 110.40689513 31.67458104 112.39309543 31.37219238 114.37924194 C28.80971698 127.39515136 28.80971698 127.39515136 31.96875 139.6640625 C32.8040625 140.64117187 33.639375 141.61828125 34.5 142.625 C35.3353125 143.62789062 36.170625 144.63078125 37.03125 145.6640625 C37.6809375 146.43492187 38.330625 147.20578125 39 148 C39 148.33 39 148.66 39 149 C26.79 149 14.58 149 2 149 C1.99589111 146.23923096 1.99178223 143.47846191 1.98754883 140.6340332 C1.97035331 131.51358099 1.92585493 122.3934093 1.86790943 113.27312946 C1.83361514 107.7433104 1.80852562 102.21376834 1.80444336 96.68383789 C1.80016571 91.34732884 1.7717468 86.01144491 1.72656822 80.67513084 C1.71357623 78.63901599 1.70929154 76.60282639 1.71384621 74.56667519 C1.71874004 71.71474289 1.69271391 68.86464616 1.65942383 66.01293945 C1.67236229 64.74950211 1.67236229 64.74950211 1.68556213 63.46054077 C1.60177292 59.18008769 1.35025681 57.46432845 -1.31074524 53.93669128 C-3.94637777 51.6408438 -3.94637777 51.6408438 -7.6875 52 C-11.25539113 52.69383331 -11.25539113 52.69383331 -13 56 C-13.21387305 58.98867957 -13.31132582 61.8872019 -13.31884766 64.87768555 C-13.32889328 65.78520569 -13.3389389 66.69272583 -13.34928894 67.62774658 C-13.38020702 70.63073079 -13.39718006 73.63362551 -13.4140625 76.63671875 C-13.43276721 78.71752192 -13.45234009 80.79831745 -13.4727478 82.87910461 C-13.52414865 88.35844424 -13.56373182 93.83780849 -13.60089111 99.31726074 C-13.64088093 104.90753304 -13.69199615 110.49770225 -13.7421875 116.08789062 C-13.83904102 127.05852866 -13.92238764 138.02920895 -14 149 C-20.93 149 -27.86 149 -35 149 C-35.06956016 132.9878614 -35.12304169 116.97578549 -35.15543652 100.96353245 C-35.17088034 93.52812608 -35.19192208 86.09281555 -35.22631836 78.6574707 C-35.2562971 72.17394075 -35.27559305 65.69048023 -35.28226548 59.20688289 C-35.28616347 55.77645609 -35.29527178 52.34622787 -35.31719017 48.91586494 C-35.33901801 45.07863799 -35.34196459 41.24182023 -35.34057617 37.40454102 C-35.351362 36.27740692 -35.36214783 35.15027283 -35.3732605 33.98898315 C-35.33338412 23.78077625 -33.42211523 16.49023653 -26.3046875 9.0078125 C-22.57160455 5.75560125 -18.57630533 3.81352038 -14 2 C-13.18789062 1.67 -12.37578125 1.34 -11.5390625 1 C-7.24185595 -0.59896058 -4.50869074 -1.41679425 0 0 Z " fill="#80CED7" transform="translate(207,347)"/>
<path d="M0 0 C11.36314477 2.01604181 21.21912598 5.05442135 29 14 C32.28238385 19.10087906 34.12633134 24.04765134 34.12025452 30.10624695 C34.12231651 31.69008682 34.12231651 31.69008682 34.12442017 33.30592346 C34.11902725 35.04300819 34.11902725 35.04300819 34.11352539 36.81518555 C34.11367142 38.03481995 34.11381744 39.25445435 34.1139679 40.51104736 C34.11339017 43.85582851 34.10837126 47.20054811 34.10139394 50.54531837 C34.09514711 54.04069319 34.09455555 57.53606882 34.09336853 61.03144836 C34.09025914 67.65060067 34.08205103 74.26973647 34.07201904 80.8888815 C34.06084574 88.42447651 34.05534438 95.96007231 34.05032361 103.49567354 C34.0398681 118.99712551 34.02207505 134.49855998 34 150 C27.07 150 20.14 150 13 150 C12.9906543 147.16817139 12.98130859 144.33634277 12.97167969 141.41870117 C12.93795111 132.07473515 12.8824254 122.73099095 12.81609726 113.38720226 C12.77654496 107.72060657 12.74439456 102.05416809 12.72900391 96.38745117 C12.71388836 90.92133962 12.67953388 85.45566005 12.63169098 79.98974037 C12.6168244 77.90173402 12.60895598 75.81366602 12.60811615 73.72560692 C12.60576059 70.80642717 12.57879527 67.88845505 12.54589844 64.96948242 C12.5509288 64.10129883 12.55595917 63.23311523 12.56114197 62.33862305 C12.53259146 57.73024659 12.53259146 57.73024659 10.1572876 53.95503235 C6.25811977 52.22886871 2.96068527 52.67977158 -1 54 C-2.31816785 57.95450356 -2.17768203 61.75319692 -2.20532227 65.87768555 C-2.21522186 66.78520569 -2.22512146 67.69272583 -2.23532104 68.62774658 C-2.2669362 71.63071067 -2.2916936 74.63369058 -2.31640625 77.63671875 C-2.33697576 79.71751825 -2.35797223 81.79831356 -2.37937927 83.87910461 C-2.43460024 89.35845558 -2.48400945 94.83784426 -2.53222656 100.31726074 C-2.58244137 105.90750489 -2.63812755 111.4976942 -2.69335938 117.08789062 C-2.80094129 128.05854867 -2.90188071 139.02925324 -3 150 C-15.21 150 -27.42 150 -40 150 C-34 141 -34 141 -31 137 C-29.74570905 128.31185801 -31.63411036 119.16491528 -32.96875 110.58203125 C-33.17148323 109.2308298 -33.37324567 107.87948239 -33.57409668 106.52799988 C-34.09953404 103.0041413 -34.63416391 99.48175433 -35.17205811 95.95977783 C-36.03412287 90.31520302 -36.88869734 84.66957096 -37.73036194 79.02191734 C-38.02386596 77.06867143 -38.32572992 75.11668749 -38.62780762 73.16474915 C-40.52853447 60.4865972 -40.52853447 60.4865972 -40 54 C-38.58605957 52.46101379 -38.58605957 52.46101379 -37 51 C-35.95377125 49.02379014 -34.94560065 47.0262871 -34 45 C-33.34 45.495 -32.68 45.99 -32 46.5 C-28.03366759 48.48316621 -25.39696738 48.22357461 -21 48 C-15.8001083 38.21727522 -11.72153028 28.11441934 -7.6875 17.8125 C-6.74152185 15.40606436 -5.79398104 13.00027184 -4.84346008 10.59562683 C-4.25740712 9.11214933 -3.67412327 7.62757422 -3.09391785 6.14179993 C-1.11162738 1.11162738 -1.11162738 1.11162738 0 0 Z " fill="#81CFD8" transform="translate(318,346)"/>
<path d="M0 0 C0.93587779 -0.00638882 1.87175557 -0.01277764 2.83599329 -0.01936007 C5.97390081 -0.03462807 9.11054941 -0.01413625 12.24841309 0.00622559 C14.49717121 0.00272495 16.74592687 -0.00293298 18.99467468 -0.0105896 C25.10418762 -0.02485526 31.21325146 -0.00775818 37.32272148 0.01569557 C43.71189088 0.03577889 50.10104117 0.02992632 56.49023438 0.02758789 C67.22042909 0.02764149 77.95040738 0.04728997 88.68054199 0.07946777 C99.71932389 0.11255884 110.75792243 0.12672602 121.79675293 0.1204834 C135.10096816 0.11299667 148.40506614 0.12036879 161.70927429 0.14213562 C166.79051337 0.15031714 171.87171203 0.15301778 176.95295715 0.15144348 C182.93494573 0.15056549 188.91671474 0.16475806 194.8986454 0.19067001 C197.09606677 0.1978412 199.29351149 0.19991088 201.490942 0.19655228 C204.48663238 0.19284651 207.48167875 0.207554 210.47729492 0.22705078 C211.35034728 0.22172286 212.22339963 0.21639493 213.12290812 0.21090555 C217.7935262 0.26348039 220.96966309 0.54031192 224.73864746 3.62145996 C225.55114746 5.80895996 225.55114746 5.80895996 225.73864746 7.62145996 C224.57969971 7.53058105 223.42075195 7.43970215 222.22668457 7.34606934 C201.30342683 5.72829028 180.4199527 4.31313155 159.42614746 4.30895996 C158.24905716 4.30412598 158.24905716 4.30412598 157.04818726 4.29919434 C137.50770716 4.24975019 118.13099476 5.9887753 100.73864746 15.62145996 C105.02864746 15.95145996 109.31864746 16.28145996 113.73864746 16.62145996 C113.73864746 21.90145996 113.73864746 27.18145996 113.73864746 32.62145996 C108.45864746 32.62145996 103.17864746 32.62145996 97.73864746 32.62145996 C97.24364746 25.19645996 97.24364746 25.19645996 96.73864746 17.62145996 C94.40986143 18.9736583 92.10339426 20.35034528 89.80114746 21.74645996 C89.14179199 22.12544434 88.48243652 22.50442871 87.80310059 22.89489746 C83.63637061 25.4414649 83.63637061 25.4414649 81.79724121 29.92614746 C81.7682373 31.26032715 81.7682373 31.26032715 81.73864746 32.62145996 C80.76927246 32.58020996 79.79989746 32.53895996 78.80114746 32.49645996 C72.64917782 33.41429414 69.25743232 38.96013356 65.73864746 43.62145996 C57.89508944 54.89930313 51.66772532 67.44749302 47.73864746 80.62145996 C48.39864746 80.62145996 49.05864746 80.62145996 49.73864746 80.62145996 C49.73864746 85.90145996 49.73864746 91.18145996 49.73864746 96.62145996 C47.75864746 96.62145996 45.77864746 96.62145996 43.73864746 96.62145996 C43.07864746 101.90145996 42.41864746 107.18145996 41.73864746 112.62145996 C44.37864746 112.62145996 47.01864746 112.62145996 49.73864746 112.62145996 C49.73864746 117.90145996 49.73864746 123.18145996 49.73864746 128.62145996 C47.09864746 128.62145996 44.45864746 128.62145996 41.73864746 128.62145996 C41.73864746 129.28145996 41.73864746 129.94145996 41.73864746 130.62145996 C45.69864746 130.62145996 49.65864746 130.62145996 53.73864746 130.62145996 C53.73864746 130.95145996 53.73864746 131.28145996 53.73864746 131.62145996 C44.49864746 131.62145996 35.25864746 131.62145996 25.73864746 131.62145996 C25.72462891 127.64019043 25.72462891 127.64019043 25.71032715 123.57849121 C25.67650774 114.79334725 25.62093109 106.00843696 25.55474472 97.22348022 C25.51529377 91.89893388 25.48309351 86.57455233 25.46765137 81.24987793 C25.45246924 76.10792573 25.41799569 70.96642666 25.37033844 65.82467651 C25.35554075 63.86640367 25.34760737 61.90806612 25.34676361 59.94973755 C25.34438736 57.19919954 25.31725502 54.44990711 25.2845459 51.69958496 C25.28957626 50.89613144 25.29460663 50.09267792 25.29978943 49.26487732 C25.17789588 42.60758347 23.1505847 37.47600012 18.84411621 32.37927246 C18.21118652 31.84044434 17.57825684 31.30161621 16.92614746 30.74645996 C16.30095215 30.19216309 15.67575684 29.63786621 15.03161621 29.06677246 C8.98812763 25.2574185 2.21941934 25.23553631 -4.69885254 24.99645996 C-5.62117676 24.95778809 -6.54350098 24.91911621 -7.49377441 24.87927246 C-9.74944397 24.7857732 -12.00512169 24.70002087 -14.26135254 24.62145996 C-14.39666098 21.55747545 -14.49559323 18.4994887 -14.57385254 15.43395996 C-14.61574707 14.56964355 -14.6576416 13.70532715 -14.70080566 12.81481934 C-14.71691895 11.97370605 -14.73303223 11.13259277 -14.74963379 10.26599121 C-14.77581787 9.4961792 -14.80200195 8.72636719 -14.82897949 7.93322754 C-12.91998641 0.15849398 -6.66364786 -0.09554356 0 0 Z " fill="#DA7F2E" transform="translate(222.2613525390625,15.3785400390625)"/>
<path d="M0 0 C0.47421387 1.19077148 0.94842773 2.38154297 1.43701172 3.60839844 C3.19827674 8.02967262 4.9618305 12.45003086 6.72607422 16.87011719 C7.48906836 18.78262864 8.25144309 20.69538732 9.01318359 22.60839844 C10.10871917 25.35937825 11.20648528 28.10945882 12.3046875 30.859375 C12.6443454 31.71368103 12.9840033 32.56798706 13.33395386 33.44818115 C13.81422531 34.64897308 13.81422531 34.64897308 14.30419922 35.87402344 C14.58399628 36.57573669 14.86379333 37.27744995 15.15206909 38.00042725 C16.71027785 42.24986509 16.71027785 42.24986509 20 45 C24.36795019 45.2426639 27.19155753 45.12232587 31 43 C34.10704439 46.13492704 36.78799614 49.05007595 37.27832031 53.55987549 C37.05361013 56.49396535 36.63597221 59.32849693 36.125 62.2265625 C35.96588135 63.29184174 35.8067627 64.35712097 35.64282227 65.4546814 C35.12794898 68.85081464 34.56508579 72.23689809 34 75.625 C33.64911032 77.87840513 33.3014228 80.13231135 32.95703125 82.38671875 C32.29371647 86.69766079 31.61384341 91.00534187 30.91577148 95.31079102 C26.74303034 112.91138951 26.74303034 112.91138951 29.56640625 129.67578125 C31.44699828 132.12253735 31.44699828 132.12253735 33.46875 134.2578125 C35 136 35 136 35 138 C24.44 138 13.88 138 3 138 C2.99589111 135.41575195 2.99178223 132.83150391 2.98754883 130.16894531 C2.9703595 121.63521068 2.92587163 113.10177614 2.86790943 104.56822586 C2.83360322 99.39373211 2.8085238 94.21953474 2.80444336 89.04492188 C2.8001682 84.05204257 2.77177061 79.05983225 2.72656822 74.06716156 C2.71356813 72.16140386 2.7092944 70.2555662 2.71384621 68.34976959 C2.71873446 65.68198715 2.69274048 63.0161734 2.65942383 60.34863281 C2.67236229 59.1639592 2.67236229 59.1639592 2.68556213 57.95535278 C2.60442088 54.08542827 2.3295255 52.35478095 -0.34590149 49.4743042 C-2.94948251 47.7369177 -2.94948251 47.7369177 -6.125 48.0625 C-9.69817108 49.21890461 -9.69817108 49.21890461 -12 52 C-12.30972105 54.81631502 -12.43747197 57.41620963 -12.43237305 60.23510742 C-12.4425647 61.07435257 -12.45275635 61.91359772 -12.46325684 62.77827454 C-12.49346679 65.55407314 -12.50266491 68.32952712 -12.51171875 71.10546875 C-12.52855952 73.02933405 -12.54670894 74.9531883 -12.56611633 76.87702942 C-12.61368789 81.9420934 -12.64345094 87.00711261 -12.66955566 92.07232666 C-12.69932512 97.24036503 -12.74586782 102.40824902 -12.79101562 107.57617188 C-12.87713028 117.71738509 -12.94288925 127.85858193 -13 138 C-18.94 138 -24.88 138 -31 138 C-31.09281112 123.30901015 -31.16408815 108.61808316 -31.20724869 93.9268589 C-31.22782642 87.10462046 -31.25585449 80.28256815 -31.30175781 73.46044922 C-31.34606207 66.87281095 -31.3691595 60.28531476 -31.37950897 53.69752121 C-31.38688152 51.18819517 -31.40127831 48.67887931 -31.42292023 46.16963577 C-31.45209185 42.64622683 -31.4559501 39.12360855 -31.45410156 35.60009766 C-31.46848267 34.57006622 -31.48286377 33.54003479 -31.49768066 32.47879028 C-31.44934065 23.92526442 -29.61780768 16.56119646 -23.75 10.125 C-17.65403137 4.5997178 -8.32766081 0 0 0 Z " fill="#D74610" transform="translate(47,310)"/>
<path d="M0 0 C2.37910229 0.73855084 4.75264463 1.49031317 7.125 2.25 C7.79015625 2.45496094 8.4553125 2.65992188 9.140625 2.87109375 C17.56679083 5.59720622 23.36491919 10.10934292 27.62324524 18.01271057 C29.63003611 22.8930231 29.39599143 27.78076254 29.34057617 32.98413086 C29.34123329 34.60963364 29.34123329 34.60963364 29.34190369 36.26797485 C29.3398212 39.83378396 29.3165149 43.39911723 29.29296875 46.96484375 C29.2873709 49.44348392 29.28310169 51.92212742 29.28010559 54.40077209 C29.26867183 60.91262028 29.23921696 67.42426654 29.20599365 73.93603516 C29.17363204 80.58557322 29.16159346 87.23517022 29.14648438 93.88476562 C29.11434612 106.92326562 29.06316727 119.96161599 29 133 C23.39 133 17.78 133 12 133 C11.98541748 130.50139404 11.97083496 128.00278809 11.95581055 125.4284668 C11.90552125 117.18214176 11.83893641 108.93600668 11.76428509 100.68986797 C11.71951702 95.68917635 11.6802752 90.68856741 11.65356445 85.68774414 C11.62759555 80.86357122 11.587239 76.03971542 11.53681374 71.2157383 C11.5201015 69.37334951 11.50861443 67.53090582 11.50238609 65.68845177 C11.49279217 63.11186689 11.46479047 60.5361013 11.43237305 57.9597168 C11.43380814 57.19439133 11.43524323 56.42906586 11.4367218 55.64054871 C11.38063928 51.57699726 11.38063928 51.57699726 9.59407043 48.02742004 C7.60550006 46.74573448 6.35649223 46.59822168 4 46.625 C3.319375 46.61726563 2.63875 46.60953125 1.9375 46.6015625 C-0.72811347 47.14973301 -1.40789962 47.76621435 -3 50 C-3.30960856 52.72685626 -3.43749096 55.23035894 -3.43237305 57.9597168 C-3.4425647 58.76970123 -3.45275635 59.57968567 -3.46325684 60.41421509 C-3.49346125 63.09261932 -3.50266402 65.77066637 -3.51171875 68.44921875 C-3.52855994 70.30582373 -3.54670942 72.16241726 -3.56611633 74.01899719 C-3.61368337 78.90650864 -3.64344931 83.79397371 -3.66955566 88.68164062 C-3.69932742 93.66871299 -3.74586933 98.65562543 -3.79101562 103.64257812 C-3.87712513 113.42832032 -3.9428866 123.21404557 -4 133 C-13.9 133 -23.8 133 -34 133 C-32 129 -32 129 -29.875 126.5 C-25.403727 118.15362373 -28.37332312 106.79046616 -29.75 97.7890625 C-29.92756836 96.5772934 -30.10513672 95.36552429 -30.28808594 94.11703491 C-30.85063846 90.28510932 -31.42450996 86.45500211 -32 82.625 C-32.57396356 78.77337706 -33.14540345 74.92142146 -33.71191406 71.06869507 C-34.06334745 68.68179025 -34.41927017 66.2955409 -34.78027344 63.9100647 C-34.94043945 62.82808807 -35.10060547 61.74611145 -35.265625 60.63134766 C-35.47880371 59.21337387 -35.47880371 59.21337387 -35.69628906 57.76675415 C-36.65155527 49.06444409 -36.65155527 49.06444409 -33.5 45.125 C-33.0359375 44.52945313 -32.571875 43.93390625 -32.09375 43.3203125 C-31.7328125 42.88460937 -31.371875 42.44890625 -31 42 C-30.46375 42.33 -29.9275 42.66 -29.375 43 C-26.35724758 44.2706326 -24.25007259 44.33854923 -21 44 C-16.11558339 41.59975614 -14.96506679 36.77142703 -13.14453125 31.9921875 C-12.79742599 31.11096222 -12.45032074 30.22973694 -12.09269714 29.32180786 C-10.98781039 26.51054353 -9.89964462 23.69316717 -8.8125 20.875 C-7.71137595 18.0510761 -6.60688529 15.22850499 -5.50016785 12.4067688 C-4.81283957 10.65106195 -4.12940142 8.89382647 -3.45014954 7.13497925 C-3.1428038 6.34390778 -2.83545807 5.5528363 -2.51879883 4.73779297 C-2.24884598 4.03846649 -1.97889313 3.33914001 -1.70075989 2.61862183 C-1 1 -1 1 0 0 Z " fill="#D74610" transform="translate(467,305)"/>
<path d="M0 0 C0.79149948 -0.00960754 1.58299896 -0.01921509 2.39848328 -0.02911377 C3.67040276 -0.03548859 3.67040276 -0.03548859 4.96801758 -0.04199219 C5.85105057 -0.04769226 6.73408356 -0.05339233 7.64387512 -0.05926514 C9.51240852 -0.06870202 11.38095847 -0.0752439 13.24951172 -0.07910156 C16.08501903 -0.08877329 18.91979066 -0.11979493 21.75512695 -0.15136719 C23.57608622 -0.15790136 25.39705064 -0.1631502 27.21801758 -0.16699219 C28.05584274 -0.17933899 28.89366791 -0.19168579 29.75688171 -0.20440674 C40.46794771 -0.16458691 50.33312424 3.96381908 58.19458008 11.27050781 C65.23959013 18.85140917 70.22942386 27.63675425 70.12036133 38.21582031 C70.11391602 39.32441406 70.1074707 40.43300781 70.10083008 41.57519531 C70.07569336 43.28835937 70.07569336 43.28835937 70.05004883 45.03613281 C70.04102539 46.20144531 70.03200195 47.36675781 70.02270508 48.56738281 C69.99922315 51.43217858 69.96638024 54.29654816 69.92504883 57.16113281 C57.98644017 57.48171844 48.45101252 53.30560558 38.92504883 46.16113281 C38.03817383 45.21238281 37.15129883 44.26363281 36.23754883 43.28613281 C32.86765796 40.18947634 30.45886815 40.30738505 25.92504883 40.16113281 C22.8408948 40.80531326 22.8408948 40.80531326 21.94848633 43.00878906 C21.61075195 43.7190625 21.27301758 44.42933594 20.92504883 45.16113281 C13.73618743 53.40067396 3.6789053 57.41604584 -7.07495117 58.16113281 C-10.7639192 58.28997161 -14.44654792 58.30114666 -18.13745117 58.28613281 C-19.09200195 58.29 -20.04655273 58.29386719 -21.0300293 58.29785156 C-26.15357236 58.29077973 -31.02632107 58.04341768 -36.07495117 57.16113281 C-36.19281906 53.22389212 -36.26275292 49.2871152 -36.32495117 45.34863281 C-36.3584668 44.24841797 -36.39198242 43.14820313 -36.42651367 42.01464844 C-36.58075277 28.94288472 -32.4258879 19.77212627 -23.41870117 10.44628906 C-17.06824177 4.56013212 -8.77456996 0.08653762 0 0 Z " fill="#581016" transform="translate(245.074951171875,162.8388671875)"/>
<path d="M0 0 C2.86195436 0.85404352 5.71266996 1.73206806 8.5625 2.625 C9.36236328 2.86089844 10.16222656 3.09679687 10.98632812 3.33984375 C17.80869512 5.51186263 22.697897 8.63538792 26.77734375 14.59765625 C27.16019531 15.41105469 27.54304688 16.22445313 27.9375 17.0625 C28.33839844 17.87847656 28.73929687 18.69445312 29.15234375 19.53515625 C30.12605752 22.36655436 30.57746616 24.04224651 30 27 C27.5859375 29.17578125 27.5859375 29.17578125 24.375 31.3125 C14.86702772 37.98987577 8.25898976 47.37169508 6 59 C5.88285841 61.57664047 5.81515754 64.12866253 5.79467773 66.70605469 C5.78477814 67.47717087 5.77487854 68.24828705 5.76467896 69.04277039 C5.73314922 71.58577427 5.70834032 74.12879682 5.68359375 76.671875 C5.66301686 78.43736246 5.64202019 80.20284507 5.62062073 81.96832275 C5.56547601 86.61086091 5.51603325 91.25344298 5.46777344 95.89605713 C5.40866146 101.4686716 5.34247535 107.04120599 5.27747345 112.61375427 C5.17955955 121.07578719 5.09063811 129.53787192 5 138 C-8.53 138 -22.06 138 -36 138 C-32.535 132.555 -32.535 132.555 -29 127 C-28.59313271 122.26980449 -28.50975279 118.61832851 -29 114 C-29.11150391 112.92921204 -29.22300781 111.85842407 -29.33789062 110.75518799 C-29.74584607 107.40029457 -30.23542709 104.06669628 -30.75 100.7265625 C-30.92756836 99.51858002 -31.10513672 98.31059753 -31.28808594 97.06600952 C-31.84993478 93.25097321 -32.42402621 89.43792718 -33 85.625 C-33.5744351 81.79045297 -34.14609697 77.95554892 -34.71191406 74.11972046 C-35.06266678 71.74491846 -35.41853893 69.37086523 -35.78027344 66.99771118 C-38.0610894 51.6370524 -38.0610894 51.6370524 -34.5 46.5625 C-34.0359375 45.88316406 -33.571875 45.20382812 -33.09375 44.50390625 C-32.7328125 44.00761719 -32.371875 43.51132812 -32 43 C-31.4121875 43.32226562 -30.824375 43.64453125 -30.21875 43.9765625 C-26.98351645 45.46887093 -24.51580792 45.37669371 -21 45 C-16.50933825 41.69783088 -15.0695564 36.91761637 -13.14453125 31.89453125 C-12.79742599 31.01472092 -12.45032074 30.13491058 -12.09269714 29.22843933 C-10.98943125 26.42687988 -9.90045887 23.62003497 -8.8125 20.8125 C-7.71113261 17.99538885 -6.60685915 15.1794494 -5.50016785 12.36442566 C-4.81312318 10.61417678 -4.12968909 8.86250563 -3.45014954 7.10932922 C-3.1428038 6.32148544 -2.83545807 5.53364166 -2.51879883 4.72192383 C-2.24884598 4.02561356 -1.97889313 3.32930328 -1.70075989 2.6118927 C-1 1 -1 1 0 0 Z " fill="#D74610" transform="translate(151,310)"/>
<path d="M0 0 C1.37549828 0.8722672 2.74678716 1.75258342 4.0859375 2.6796875 C11.04217384 7.32730392 18.72028816 9.85548101 26.5625 12.625 C27.13430567 30.75563837 27.57860644 45.74826024 14.5625 59.78125 C8.04305185 66.02129323 -0.23914284 71.06183528 -9.4375 71.625 C-10.30890625 71.686875 -11.1803125 71.74875 -12.078125 71.8125 C-23.31002183 72.27329577 -32.775303 68.78003818 -41.4375 61.625 C-49.02641872 54.34665981 -54.96696875 45.68628609 -55.59619141 34.90625 C-55.63378109 31.83091286 -55.6121298 28.76263887 -55.5625 25.6875 C-55.55347656 24.62208984 -55.54445312 23.55667969 -55.53515625 22.45898438 C-55.51173414 19.84741966 -55.47893452 17.23633063 -55.4375 14.625 C-54.27734375 14.57601562 -53.1171875 14.52703125 -51.921875 14.4765625 C-35.29281524 13.71598923 -19.39780746 12.12140978 -5.609375 1.87109375 C-2.4375 -0.375 -2.4375 -0.375 0 0 Z " fill="#F0D4BC" transform="translate(276.4375,222.375)"/>
<path d="M0 0 C0.78950546 -0.00807175 1.57901093 -0.01614349 2.3924408 -0.02445984 C4.06425807 -0.03827208 5.73610321 -0.049007 7.40795898 -0.05688477 C9.10010166 -0.06835637 10.79220955 -0.08873113 12.48413086 -0.1184082 C26.78691158 -0.36899035 38.08013501 0.90222642 48.90234375 11.23828125 C57.1355938 20.07799838 59.5443832 29.51162717 59.15234375 41.36328125 C59.13429688 42.41515625 59.11625 43.46703125 59.09765625 44.55078125 C59.05104726 47.11427547 58.98564645 49.67576219 58.90234375 52.23828125 C43.29826356 54.38103423 25.63433704 54.98662205 11.9921875 45.9296875 C9.31089894 43.75959788 7.14162697 41.39931409 5.05859375 38.65625 C3.21944041 36.40080181 1.93882199 36.24201877 -0.95703125 35.9453125 C-4.77432456 36.30140329 -5.7208561 37.21376048 -8.34765625 39.92578125 C-15.34882985 46.57454678 -25.50005729 52.08833582 -35.36328125 52.3125 C-36.71679688 52.27576172 -36.71679688 52.27576172 -38.09765625 52.23828125 C-38.21561606 48.78024394 -38.28548377 45.32273568 -38.34765625 41.86328125 C-38.38117187 40.89777344 -38.4146875 39.93226563 -38.44921875 38.9375 C-38.59137635 28.34675877 -34.87064541 19.36898944 -28.09765625 11.23828125 C-19.85369814 3.55874351 -11.13026583 0.10901753 0 0 Z " fill="#581016" transform="translate(88.09765625,140.76171875)"/>
<path d="M0 0 C0.94126892 1.61862183 0.94126892 1.61862183 1.74584961 3.73779297 C2.05304428 4.52886444 2.36023895 5.31993591 2.67674255 6.13497925 C3.15966515 7.42554733 3.15966515 7.42554733 3.65234375 8.7421875 C3.99374893 9.62149933 4.33515411 10.50081116 4.68690491 11.4067688 C6.1508533 15.17757219 7.58866791 18.95817267 9.02709961 22.73876953 C10.07970856 25.4938694 11.14678472 28.24304809 12.21484375 30.9921875 C12.53476791 31.84851776 12.85469208 32.70484802 13.18431091 33.58712769 C15.29184737 39.3508328 15.29184737 39.3508328 20 43 C23.51745287 42.74751373 23.51745287 42.74751373 27 42 C31 42 31 42 33.3125 44.25 C37.79161599 51.72171789 33.34799749 65.03283482 32.125 73.1875 C30.7397252 82.6766324 29.41804511 92.16900724 28.25 101.6875 C28.12254395 102.69514404 27.99508789 103.70278809 27.86376953 104.7409668 C26.19304929 114.88052023 26.19304929 114.88052023 28.3125 124.55859375 C28.869375 125.17863281 29.42625 125.79867187 30 126.4375 C33 129.875 33 129.875 33 132 C22.77 132 12.54 132 2 132 C1.97421875 127.14667969 1.9484375 122.29335938 1.921875 117.29296875 C1.8966765 114.19851661 1.87032072 111.10415933 1.83984375 108.00976562 C1.79169206 103.10977963 1.74757925 98.2100135 1.72900391 93.30981445 C1.71373964 89.35433265 1.67912436 85.39943029 1.63169098 81.44420815 C1.61697697 79.94337342 1.60896478 78.44245591 1.60811615 76.9415493 C1.59244534 63.10947445 -1.30329236 52.00784058 -10 41 C-15.72479701 35.45024175 -22.44077544 31.51974152 -30 29 C-30.72298491 21.19176299 -28.5192228 15.29607251 -23.53125 9.20703125 C-18.36323726 4.27968577 -7.00063335 -2.33354445 0 0 Z " fill="#D74610" transform="translate(366,306)"/>
<path d="M0 0 C1.01900391 1.11955078 1.01900391 1.11955078 2.05859375 2.26171875 C5.00484427 5.19558573 8.33708792 7.02788262 12.0625 8.8125 C12.75077881 9.14797852 13.43905762 9.48345703 14.14819336 9.82910156 C36.68615688 20.85360233 36.68615688 20.85360233 61.0625 25.0625 C63.16015625 25.2265625 63.16015625 25.2265625 65 26 C66.83017704 28.52280043 68.08083212 31.11067943 69.3984375 33.93359375 C72.26595841 39.4238472 76.79965912 45.0102486 82.10986328 48.31176758 C84 50 84 50 84.45410156 52.36010742 C84.4331543 53.26607666 84.41220703 54.1720459 84.390625 55.10546875 C84.37773437 56.08837891 84.36484375 57.07128906 84.3515625 58.08398438 C84.31804687 59.10814453 84.28453125 60.13230469 84.25 61.1875 C84.23195313 62.22326172 84.21390625 63.25902344 84.1953125 64.32617188 C84.14814437 66.88504284 84.08234057 69.44205842 84 72 C79.78439669 73.42992047 75.56685358 74.85391801 71.34741211 76.27246094 C69.91229357 76.75586246 68.47771771 77.24087817 67.04370117 77.72753906 C64.98236386 78.42678121 62.91914458 79.12019477 60.85546875 79.8125 C59.61434326 80.23144531 58.37321777 80.65039062 57.09448242 81.08203125 C54 82 54 82 51 82 C50.85304688 81.38253906 50.70609375 80.76507813 50.5546875 80.12890625 C47.8746473 70.00944413 42.19847801 60.58711318 33.18896484 54.84594727 C23.8794698 50.01179689 13.79514537 47.00355133 3.875 43.6875 C1.94508851 43.03647091 0.01539886 42.38478381 -1.9140625 41.73242188 C-6.60684956 40.14734352 -11.30255659 38.57122261 -16 37 C-16.12518351 33.93883084 -16.21669814 30.8828058 -16.2890625 27.8203125 C-16.32781494 26.95704346 -16.36656738 26.09377441 -16.40649414 25.2043457 C-16.48505508 20.77308428 -16.46556839 18.65886194 -13.84130859 14.94506836 C-11.375 12.875 -11.375 12.875 -8.625 10.93359375 C-4.66665731 8.01785025 -2.44220755 4.19940567 0 0 Z " fill="#D97F2D" transform="translate(145,249)"/>
<path d="M0 0 C1.6368644 -0.01645901 3.27365997 -0.0436143 4.91015625 -0.08203125 C17.3407413 -0.37164172 27.48829588 0.58250882 37.4765625 8.85009766 C44.37410515 15.476869 49.62665261 22.94179043 50.09008789 32.75366211 C50.08223267 33.97122192 50.08223267 33.97122192 50.07421875 35.21337891 C50.06938477 36.54272461 50.06938477 36.54272461 50.06445312 37.89892578 C50.05188477 39.26694336 50.05188477 39.26694336 50.0390625 40.66259766 C50.03455078 41.59394531 50.03003906 42.52529297 50.02539062 43.48486328 C50.01365484 45.77334139 49.99723613 48.06168573 49.9765625 50.35009766 C38.84536764 49.07829447 28.17564525 46.04433115 20.3515625 37.47509766 C17.88638503 35.26941255 17.19139655 34.8969276 14.0390625 34.60009766 C11.47476401 34.75826934 10.3375519 35.02691762 8.41015625 36.75244141 C7.42808414 37.97534864 6.46799508 39.21614448 5.52734375 40.47119141 C-0.28770615 47.5166297 -10.30700614 50.23390738 -19.0234375 51.35009766 C-22.37880336 51.48852272 -25.72814945 51.48983557 -29.0859375 51.47509766 C-29.97087891 51.47896484 -30.85582031 51.48283203 -31.76757812 51.48681641 C-35.97748273 51.48049997 -39.92092931 51.42476716 -44.0234375 50.35009766 C-44.11188766 47.2044472 -44.16430585 44.05912391 -44.2109375 40.91259766 C-44.23607422 40.03410156 -44.26121094 39.15560547 -44.28710938 38.25048828 C-44.41188027 26.9795171 -40.42714375 17.93254705 -32.8359375 9.66259766 C-23.26242327 0.48797985 -12.47283809 0.09156647 0 0 Z " fill="#581016" transform="translate(413.0234375,140.64990234375)"/>
<path d="M0 0 C2.17187249 1.05577135 4.28135424 2.16196379 6.375 3.3671875 C20.57606263 11.5243455 33.90182725 12.9933527 50 14 C50.08845016 17.14565046 50.14086835 20.29097375 50.1875 23.4375 C50.21263672 24.31599609 50.23777344 25.19449219 50.26367188 26.09960938 C50.3762076 36.26533629 47.16963887 44.89899592 41 53 C31.50887276 62.20990865 21.74425547 65.4819742 8.69921875 65.33203125 C-2.00617053 64.37114626 -9.88543226 58.75540196 -17 51 C-26.53192313 39.42879524 -25.38377478 25.13275246 -25 11 C-24.24976563 10.76925781 -23.49953125 10.53851563 -22.7265625 10.30078125 C-14.64354596 7.72521049 -7.08142484 4.7209499 0 0 Z " fill="#F0D4BB" transform="translate(86,196)"/>
<path d="M0 0 C0.96679688 0.54269531 1.93359375 1.08539063 2.9296875 1.64453125 C4.24451685 2.36768739 5.55963694 3.09031509 6.875 3.8125 C7.50664062 4.16892578 8.13828125 4.52535156 8.7890625 4.89257812 C13.99670669 7.73074421 19.28001596 9.4690415 25 11 C25.08825361 14.47900249 25.14080635 17.95771117 25.1875 21.4375 C25.21263672 22.41138672 25.23777344 23.38527344 25.26367188 24.38867188 C25.38031233 36.01383688 21.67280324 45.12439317 13.8125 53.6875 C5.89664049 61.25693239 -3.24032411 63.34137639 -13.87109375 63.2109375 C-24.48563509 62.49535044 -31.66766121 57.77873768 -38.75 50.125 C-45.84009214 41.65897674 -47.16696039 33.9629915 -47.0625 23.1875 C-47.05798828 22.30384766 -47.05347656 21.42019531 -47.04882812 20.50976562 C-47.03709866 18.33981441 -47.01916495 16.16989828 -47 14 C-46.43603516 13.9498877 -45.87207031 13.89977539 -45.29101562 13.84814453 C-42.69337763 13.61359122 -40.09673353 13.36935554 -37.5 13.125 C-36.613125 13.04636719 -35.72625 12.96773437 -34.8125 12.88671875 C-22.07651083 11.66930802 -10.12711186 8.05565716 0 0 Z " fill="#F0D4BC" transform="translate(427,194)"/>
<path d="M0 0 C0.69464355 0.45149414 1.38928711 0.90298828 2.10498047 1.36816406 C12.11442527 7.01018878 23.64739169 7.72112346 34.875 8.25 C36.25659221 8.32666489 37.63810452 8.40478394 39.01953125 8.484375 C42.34559025 8.67044823 45.67271694 8.83727573 49 9 C49 13.29 49 17.58 49 22 C43.20308636 24.41490939 37.37439834 26.58744354 31.41015625 28.55078125 C30.39736099 28.88684891 30.39736099 28.88684891 29.36410522 29.22970581 C26.56284887 30.15885675 23.76169639 31.08736248 20.95239258 31.99194336 C6.83808854 36.55114102 -4.1913488 41.70418849 -12 55 C-14.41769586 59.82696769 -15.44493092 64.67133686 -16 70 C-22.36430174 68.68764148 -28.42121028 66.98780585 -34.5625 64.875 C-35.78936523 64.45927734 -35.78936523 64.45927734 -37.04101562 64.03515625 C-39.02876568 63.36094863 -41.01459349 62.68107796 -43 62 C-44.47753876 42.25654613 -44.47753876 42.25654613 -41.20703125 37.26171875 C-38.88180193 35.62977389 -36.5035318 34.33603914 -34 33 C-28.04004886 26.98599035 -23.59110636 18.23313423 -21.1484375 10.19921875 C-20 8 -20 8 -17.6796875 7.25 C-16.29136719 7.12625 -16.29136719 7.12625 -14.875 7 C-9.03167796 6.20807609 -4.22911634 4.22911634 0 0 Z " fill="#D87E2D" transform="translate(337,259)"/>
<path d="M0 0 C0.01458252 0.80405273 0.02916504 1.60810547 0.04418945 2.43652344 C-0.75395091 27.90713985 -0.75395091 27.90713985 5 52 C5.06394217 54.93028967 5.06569926 57.83494955 5.02172852 60.76416016 C5.01212097 61.67153427 5.00251343 62.57890839 4.99261475 63.51377869 C4.95955181 66.52228377 4.91924729 69.53064692 4.87890625 72.5390625 C4.85461226 74.62128189 4.83076835 76.70350657 4.80735779 78.78573608 C4.74444509 84.27341736 4.67539883 89.76100519 4.60510254 95.24859619 C4.53448392 100.8453749 4.46962826 106.44222001 4.40429688 112.0390625 C4.27519192 123.02611657 4.13907909 134.01306765 4 145 C-2.93 145 -9.86 145 -17 145 C-17.06956016 128.9878614 -17.12304169 112.97578549 -17.15543652 96.96353245 C-17.17088034 89.52812608 -17.19192208 82.09281555 -17.22631836 74.6574707 C-17.2562971 68.17394075 -17.27559305 61.69048023 -17.28226548 55.20688289 C-17.28616347 51.77645609 -17.29527178 48.34622787 -17.31719017 44.91586494 C-17.33901801 41.07863799 -17.34196459 37.24182023 -17.34057617 33.40454102 C-17.351362 32.27740692 -17.36214783 31.15027283 -17.3732605 29.98898315 C-17.33924412 21.28091622 -16.29088457 13.67475287 -10.125 7.125 C-9.46757812 6.40570313 -8.81015625 5.68640625 -8.1328125 4.9453125 C-2.71084337 0 -2.71084337 0 0 0 Z " fill="#46C3C3" transform="translate(189,351)"/>
<path d="M0 0 C0.86051468 0.00037766 1.72102936 0.00075531 2.60762024 0.00114441 C3.52238632 0.02695084 4.4371524 0.05275726 5.37963867 0.0793457 C6.32699387 0.08642044 7.27434906 0.09349518 8.25041199 0.1007843 C11.26695764 0.12870361 14.28162582 0.1914378 17.29760742 0.25512695 C19.34640868 0.28021299 21.39523913 0.30302563 23.4440918 0.32348633 C28.45848363 0.37852237 33.47147756 0.4647784 38.48510742 0.56762695 C37.50734675 2.04772339 36.52785803 3.52667839 35.54760742 5.00512695 C35.00233398 5.82883789 34.45706055 6.65254883 33.89526367 7.5012207 C32.48510742 9.56762695 32.48510742 9.56762695 31.48510742 10.56762695 C31.24982969 12.91749957 31.07124325 15.27318734 30.92260742 17.63012695 C30.83881836 18.92047852 30.7550293 20.21083008 30.66870117 21.5402832 C30.57782227 23.03881836 30.57782227 23.03881836 30.48510742 24.56762695 C28.62885742 24.58116211 28.62885742 24.58116211 26.73510742 24.5949707 C24.15310664 24.9177208 22.91300099 25.08370726 21.16870117 27.05639648 C20.12053877 29.04533602 19.27885592 31.02688515 18.48510742 33.13012695 C18.18733398 33.84104492 17.88956055 34.55196289 17.58276367 35.28442383 C16.85482827 37.03381697 16.16601379 38.79939822 15.48510742 40.56762695 C20.43510742 40.56762695 25.38510742 40.56762695 30.48510742 40.56762695 C30.48510742 45.84762695 30.48510742 51.12762695 30.48510742 56.56762695 C25.20510742 56.56762695 19.92510742 56.56762695 14.48510742 56.56762695 C13.99010742 51.61762695 13.99010742 51.61762695 13.48510742 46.56762695 C12.83238281 48.89921999 12.1878554 51.23260491 11.54760742 53.56762695 C11.36520508 54.21602539 11.18280273 54.86442383 10.99487305 55.5324707 C10.72900391 56.50893555 10.72900391 56.50893555 10.45776367 57.50512695 C10.29542236 58.09165039 10.13308105 58.67817383 9.96582031 59.2824707 C9.25278451 62.67201622 8.91473049 66.13064239 8.48510742 69.56762695 C-0.42489258 70.55762695 -0.42489258 70.55762695 -9.51489258 71.56762695 C-9.62794111 63.0486372 -9.71963459 54.53023239 -9.77395344 46.01069355 C-9.8000264 42.05453393 -9.83538066 38.0989149 -9.89208984 34.14306641 C-9.94649437 30.32399893 -9.97633044 26.50545076 -9.98927879 22.68602562 C-9.99850377 21.23033664 -10.01651876 19.77467549 -10.04354286 18.31920815 C-10.07995001 16.27680116 -10.08483374 14.23652793 -10.08251953 12.19384766 C-10.09362259 11.0324678 -10.10472565 9.87108795 -10.11616516 8.67451477 C-9.06301438 3.23268783 -5.60898168 -0.08272834 0 0 Z " fill="#DA7F2E" transform="translate(81.514892578125,55.432373046875)"/>
<path d="M0 0 C0.33 0 0.66 0 1 0 C1.14695312 0.94617188 1.29390625 1.89234375 1.4453125 2.8671875 C2.73754259 10.66244588 4.48632506 18.12750201 7 25.625 C7.2489502 26.36991699 7.49790039 27.11483398 7.75439453 27.88232422 C8.82613868 30.98245121 9.85644334 33.75774877 11.53718567 36.59399414 C13.29849736 40.69501901 13.36129678 44.20277978 13.2487793 48.57568359 C13.23946381 49.41536682 13.23014832 50.25505005 13.22055054 51.12017822 C13.18633033 53.88001974 13.13041132 56.63896335 13.07421875 59.3984375 C13.0461697 61.31798421 13.019481 63.23755124 12.99409485 65.15713501 C12.92378805 70.1978151 12.83504629 75.23800732 12.74243164 80.27832031 C12.65111285 85.4262649 12.57727385 90.57445714 12.50195312 95.72265625 C12.35171907 105.81544203 12.18038874 115.90770809 12 126 C6.06 126 0.12 126 -6 126 C-6.09281112 111.30901015 -6.16408815 96.61808316 -6.20724869 81.9268589 C-6.22782642 75.10462046 -6.25585449 68.28256815 -6.30175781 61.46044922 C-6.34606207 54.87281095 -6.3691595 48.28531476 -6.37950897 41.69752121 C-6.38688152 39.18819517 -6.40127831 36.67887931 -6.42292023 34.16963577 C-6.45209185 30.64622683 -6.4559501 27.12360855 -6.45410156 23.60009766 C-6.46848267 22.57006622 -6.48286377 21.54003479 -6.49768066 20.47879028 C-6.45622064 13.14264412 -5.40754874 5.40754874 0 0 Z " fill="#BB3B14" transform="translate(22,322)"/>
<path d="M0 0 C0.8773732 -0.00287018 1.7547464 -0.00574036 2.65870667 -0.00869751 C4.50335338 -0.01072735 6.34802214 -0.00527356 8.19262695 0.00732422 C10.99284759 0.02337412 13.79162088 0.00744876 16.59179688 -0.01171875 C18.39453439 -0.00973575 20.19727102 -0.0058909 22 0 C23.23791542 -0.00910904 23.23791542 -0.00910904 24.50083923 -0.0184021 C35.15919061 0.10848223 45.01236277 4.23633169 52.8359375 11.5078125 C59.88094755 19.08871385 64.87078129 27.87405894 64.76171875 38.453125 C64.75527344 39.56171875 64.74882812 40.6703125 64.7421875 41.8125 C64.71705078 43.52566406 64.71705078 43.52566406 64.69140625 45.2734375 C64.68238281 46.43875 64.67335938 47.6040625 64.6640625 48.8046875 C64.64058057 51.66948327 64.60773766 54.53385285 64.56640625 57.3984375 C59.19834758 57.58515258 55.17822045 57.25727903 50.06640625 55.3984375 C49.02484375 55.0271875 47.98328125 54.6559375 46.91015625 54.2734375 C46.13671875 53.9846875 45.36328125 53.6959375 44.56640625 53.3984375 C45.22640625 53.0684375 45.88640625 52.7384375 46.56640625 52.3984375 C44.58117087 40.2933437 41.8070654 30.81633368 33.56640625 21.3984375 C33.56640625 20.7384375 33.56640625 20.0784375 33.56640625 19.3984375 C32.99792969 19.13804687 32.42945313 18.87765625 31.84375 18.609375 C29.37571201 17.29703919 27.34014639 15.73127559 25.12890625 14.0234375 C11.33589432 4.51101548 -4.27406589 5.5998456 -20.43359375 5.3984375 C-13.76878545 0.95523197 -7.81468045 -0.05736261 0 0 Z " fill="#420C10" transform="translate(250.43359375,162.6015625)"/>
<path d="M0 0 C4.22654682 3.62275441 8.32601951 7.20636062 12.375 11 C16.96579245 15.20346418 21.68416404 18.77112186 27 22 C26.855625 23.16015625 26.71125 24.3203125 26.5625 25.515625 C25.97841341 30.33783147 25.47812709 35.16628932 25 40 C24.81244141 41.75763672 24.81244141 41.75763672 24.62109375 43.55078125 C24.26627498 49.37131902 24.85103838 52.47349538 28.5 57.125 C29.1496875 57.82882812 29.799375 58.53265625 30.46875 59.2578125 C32 61 32 61 32 63 C21.44 63 10.88 63 0 63 C0 42.21 0 21.42 0 0 Z " fill="#BB3B14" transform="translate(50,385)"/>
<path d="M0 0 C2.53578705 2.53578705 4.79694365 4.90169697 7.0625 7.625 C13.36689075 14.86488099 20.31341428 21.75322476 29 26 C28.835 27.258125 28.67 28.51625 28.5 29.8125 C28.33249483 31.54158564 28.16588656 33.27075832 28 35 C27.81050781 36.299375 27.81050781 36.299375 27.6171875 37.625 C26.90114591 45.57075186 30.15230899 49.80632159 35.03125 55.6640625 C36.00578125 56.82035156 36.00578125 56.82035156 37 58 C37 58.33 37 58.66 37 59 C24.79 59 12.58 59 0 59 C0 39.53 0 20.06 0 0 Z " fill="#46C5C5" transform="translate(209,437)"/>
<path d="M0 0 C1.32 1.65 2.64 3.3 4 5 C10.91959482 13.1868213 17.97986368 20.12270646 27 26 C26.7834375 27.79244141 26.7834375 27.79244141 26.5625 29.62109375 C26.37472957 31.22653089 26.1872449 32.83200148 26 34.4375 C25.85691406 35.6121582 25.85691406 35.6121582 25.7109375 36.81054688 C24.22248459 46.41790202 24.22248459 46.41790202 26.3125 55.55859375 C26.869375 56.17863281 27.42625 56.79867187 28 57.4375 C31 60.875 31 60.875 31 63 C20.77 63 10.54 63 0 63 C0 42.21 0 21.42 0 0 Z " fill="#BA3B14" transform="translate(368,375)"/>
<path d="M0 0 C5.61 1.98 11.22 3.96 17 6 C17.96631858 39.17693778 17.96631858 39.17693778 5 53.15625 C-4.66797801 62.40988609 -14.99484773 65.24940942 -28.07421875 65.16796875 C-31.69144237 64.96030438 -34.60714493 64.23376548 -38 63 C-35.68027181 60.68027181 -34.17222379 60.3297789 -31.0625 59.375 C-19.89349386 55.38398079 -11.8733744 48.25509816 -6 38 C-1.48052268 28.23973227 0.1667583 19.77538631 0.0625 9.125 C0.05798828 8.24585938 0.05347656 7.36671875 0.04882812 6.4609375 C0.03712337 4.30726197 0.01919069 2.15362183 0 0 Z " fill="#E2C0AA" transform="translate(286,229)"/>
<path d="M0 0 C4.43727178 -0.11756758 8.87413528 -0.18770716 13.3125 -0.25 C14.55580078 -0.28351563 15.79910156 -0.31703125 17.08007812 -0.3515625 C29.46249964 -0.48156168 38.94532812 2.35208095 48 11 C56.23325005 19.83971713 58.64203945 29.27334592 58.25 41.125 C58.23195312 42.176875 58.21390625 43.22875 58.1953125 44.3125 C58.14870351 46.87599422 58.0833027 49.43748094 58 52 C52.44674707 52.79421523 47.10484516 53.12996573 41.5 53.0625 C40.40945312 53.05573242 40.40945312 53.05573242 39.296875 53.04882812 C37.53121319 53.03721193 35.7655947 53.01928441 34 53 C34 52.67 34 52.34 34 52 C35.65 52 37.3 52 39 52 C37.29513234 35.56119472 34.87776961 21.58999265 22 10 C15.26307801 4.81074928 8.27390027 2.62066088 0 1 C0 0.67 0 0.34 0 0 Z " fill="#420C10" transform="translate(89,141)"/>
<path d="M0 0 C0.67546875 0.20496094 1.3509375 0.40992188 2.046875 0.62109375 C2.93890625 0.89050781 3.8309375 1.15992188 4.75 1.4375 C5.63171875 1.70433594 6.5134375 1.97117188 7.421875 2.24609375 C9.60615794 2.88483103 11.79095435 3.45595065 14 4 C14.08825361 7.47900249 14.14080635 10.95771117 14.1875 14.4375 C14.21263672 15.41138672 14.23777344 16.38527344 14.26367188 17.38867188 C14.38031233 29.01383688 10.67280324 38.12439317 2.8125 46.6875 C-5.1081154 54.26148016 -14.21585002 56.30548255 -24.84375 56.2265625 C-29.43414342 55.89705406 -33.80220981 54.91848692 -38 53 C-38.33 52.34 -38.66 51.68 -39 51 C-37.7625 50.79375 -36.525 50.5875 -35.25 50.375 C-23.46233973 47.76380943 -14.34067609 41.54441768 -7.64453125 31.66796875 C-2.82835584 23.85455354 -0.92832116 16.85835331 -0.4375 7.75 C-0.37272461 6.63238281 -0.37272461 6.63238281 -0.30664062 5.4921875 C-0.20103275 3.661651 -0.10005799 1.83084824 0 0 Z " fill="#E2C0AA" transform="translate(438,201)"/>
<path d="M0 0 C0.76493774 -0.00902847 1.52987549 -0.01805695 2.31799316 -0.02735901 C3.93851829 -0.04185079 5.55910179 -0.05074559 7.1796875 -0.05444336 C9.62084482 -0.06623523 12.05938384 -0.11533427 14.5 -0.16601562 C27.01484377 -0.29663839 37.18515375 1.69328433 46.546875 10.6875 C53.3406859 17.79461771 57.31813414 25.27905175 57.25390625 35.234375 C57.24907227 36.5637207 57.24907227 36.5637207 57.24414062 37.91992188 C57.23157227 39.28793945 57.23157227 39.28793945 57.21875 40.68359375 C57.21423828 41.61494141 57.20972656 42.54628906 57.20507812 43.50585938 C57.19334234 45.79433748 57.17692363 48.08268183 57.15625 50.37109375 C51.91542532 49.7651234 47.1893475 48.94393672 42.15625 47.37109375 C42.14207031 46.6440625 42.12789063 45.91703125 42.11328125 45.16796875 C41.5194816 32.65003017 37.1572663 22.21903154 28.15625 13.37109375 C15.72023879 3.50419863 3.41346372 2.82536397 -11.84375 2.37109375 C-8.09508863 -0.05426106 -4.31864612 0.03176177 0 0 Z " fill="#420C10" transform="translate(405.84375,140.62890625)"/>
<path d="M0 0 C0.58265625 0.144375 1.1653125 0.28875 1.765625 0.4375 C12.23169254 2.80717567 22.40335546 2.16813404 33 1 C35.45212426 14.53209313 31.07496385 22.51881418 23.51147461 33.68188477 C19.83539688 38.8927856 19.83539688 38.8927856 18 41 C17.34 41 16.68 41 16 41 C7.89363286 31.75808791 -1.69341452 19.83378329 -1 7 C-0.79389635 4.60666841 -0.46228106 2.36276989 0 0 Z " fill="#EAC4A2" transform="translate(245,307)"/>
<path d="M0 0 C5.61 0.33 11.22 0.66 17 1 C17.08176324 4.14637071 17.14086233 7.29056795 17.1875 10.4375 C17.21263672 11.31599609 17.23777344 12.19449219 17.26367188 13.09960938 C17.3762076 23.26533629 14.16963887 31.89899592 8 40 C-0.57721924 48.32307941 -9.43802392 52.17347641 -21.3125 52.0625 C-22.56675781 52.05347656 -23.82101563 52.04445313 -25.11328125 52.03515625 C-26.06589844 52.02355469 -27.01851563 52.01195312 -28 52 C-28 51.67 -28 51.34 -28 51 C-26.845 50.814375 -25.69 50.62875 -24.5 50.4375 C-15.40598621 48.13989581 -9.49698957 39.69411131 -4.8125 32.06640625 C0.75063802 21.90140773 0.19072942 11.25303569 0 0 Z " fill="#E1C0A9" transform="translate(119,209)"/>
<path d="M0 0 C0.66 0 1.32 0 2 0 C2.22003759 1.67581716 2.44005681 3.35163674 2.66000366 5.02746582 C2.85895513 6.54127834 3.05837274 8.05502965 3.25820923 9.56872559 C3.81887243 13.81984569 4.37169973 18.071752 4.91064453 22.32568359 C5.95630281 30.51320219 7.0704544 38.65808583 8.5390625 46.78125 C8.76820187 48.12586759 8.99578427 49.47075159 9.22167969 50.81591797 C9.64538441 53.28626218 10.10987331 55.75008919 10.62207031 58.20361328 C11.63261816 64.36158392 11.56884685 67.95573598 7.85379028 73.19589233 C6.00325942 75.56052554 4.04667146 77.80404542 2 80 C-1.73054829 78.7564839 -2.81528342 77.24841167 -5.25 74.1875 C-5.97703125 73.31480469 -6.7040625 72.44210937 -7.453125 71.54296875 C-11.1078602 63.17214848 -7.44130695 51.40500245 -6.15234375 42.578125 C-5.97619034 41.35212585 -5.80003693 40.12612671 -5.61854553 38.86297607 C-5.06151562 34.99149694 -4.49959265 31.12074697 -3.9375 27.25 C-3.55591523 24.60687489 -3.17545306 21.96358968 -2.79492188 19.3203125 C-1.86700293 12.87966658 -0.93507814 6.4396102 0 0 Z " fill="#E0E0E0" transform="translate(261,410)"/>
<path d="M0 0 C0.83789062 0.16242188 1.67578125 0.32484375 2.5390625 0.4921875 C11.22897815 1.76723156 20.34063104 1.41377452 29 0 C30.99122024 12.33875787 27.95561939 19.02343007 20.88793945 29.05395508 C17.66681301 33.38067378 17.66681301 33.38067378 16 35 C15.01 35 14.02 35 13 35 C6.43593765 28.1622174 -0.64997557 17.91574898 -0.9074707 8.22875977 C-0.77412037 5.45034212 -0.48545451 2.73846132 0 0 Z " fill="#EAC4A2" transform="translate(84,275)"/>
<path d="M0 0 C1.64839282 2.95885633 2.39228458 5.49530446 2.86962891 8.84106445 C3.00962311 9.79918533 3.14961731 10.75730621 3.29385376 11.74446106 C3.43664764 12.77367172 3.57944153 13.80288239 3.7265625 14.86328125 C3.87910492 15.92862595 4.03164734 16.99397064 4.18881226 18.09159851 C4.50977663 20.34468677 4.82728815 22.59826921 5.14160156 24.85229492 C5.62188991 28.29023773 6.11476577 31.72620097 6.609375 35.16210938 C6.92002527 37.35405988 7.22994503 39.54611406 7.5390625 41.73828125 C7.68590485 42.76141922 7.83274719 43.78455719 7.98403931 44.83869934 C9.85688112 58.3933479 9.85688112 58.3933479 7.46875 62.87109375 C6.8190625 63.71800781 6.169375 64.56492187 5.5 65.4375 C4.52546875 66.73494141 4.52546875 66.73494141 3.53125 68.05859375 C3.0259375 68.69925781 2.520625 69.33992188 2 70 C-2.94288705 67.81393013 -5.65281319 64.85029752 -8 60 C-8.83483329 47.90939415 -5.25639663 34.60203344 -3.4375 22.6875 C-3.10438946 20.48248653 -2.77170364 18.27740885 -2.43945312 16.07226562 C-1.63119872 10.71409345 -0.81769948 5.35673847 0 0 Z " fill="#DADADA" transform="translate(98,372)"/>
<path d="M0 0 C1.01126953 0.24363281 1.01126953 0.24363281 2.04296875 0.4921875 C10.47688376 1.94054807 19.57492114 1.37552308 28 0 C30.2545082 11.63865772 26.11171688 18.1836395 19.80004883 27.59667969 C16.58214982 32.20247331 16.58214982 32.20247331 15 34 C14.34 34 13.68 34 13 34 C6.11556333 26.1783901 -0.93308203 16.42699076 -0.8125 5.75 C-0.45703125 2.359375 -0.45703125 2.359375 0 0 Z " fill="#ECC6A3" transform="translate(402,271)"/>
<path d="M0 0 C5.38035829 0.38869509 10.66037533 0.85018747 15.9375 2 C21.59426644 3.22062271 27.23170331 3.5975607 33 4 C33 9.28 33 14.56 33 20 C19.47 20 5.94 20 -8 20 C-5.69 16.37 -3.38 12.74 -1 9 C0.03611779 4.0655993 0.03611779 4.0655993 0 0 Z " fill="#BA3B14" transform="translate(123,428)"/>
<path d="M0 0 C1.62573242 1.92773438 1.62573242 1.92773438 3.35546875 4.59375 C3.97744141 5.54121094 4.59941406 6.48867188 5.24023438 7.46484375 C5.88283203 8.46644531 6.52542969 9.46804688 7.1875 10.5 C7.84169922 11.50160156 8.49589844 12.50320313 9.16992188 13.53515625 C10.78937158 16.01752442 12.39881434 18.50582719 14 21 C12.71825282 23.81878012 11.38992385 25.85241496 9.1796875 28.015625 C8.64472656 28.54414063 8.10976562 29.07265625 7.55859375 29.6171875 C7.00300781 30.15601563 6.44742188 30.69484375 5.875 31.25 C5.03001953 32.08144531 5.03001953 32.08144531 4.16796875 32.9296875 C2.78313972 34.29104485 1.39216796 35.64614859 0 37 C-2.7284775 33.73563411 -4.1705025 30.44105235 -5.69921875 26.484375 C-6.05908623 25.5606308 -6.05908623 25.5606308 -6.42622375 24.6182251 C-7.18585875 22.66436853 -7.93678494 20.70729878 -8.6875 18.75 C-9.20320315 17.41904871 -9.71947328 16.08831697 -10.23632812 14.7578125 C-11.49745759 11.50772343 -12.75080251 8.25469673 -14 5 C-11.81385576 2.81385576 -10.46120051 2.31743465 -7.5625 1.375 C-6.38880859 0.98441406 -6.38880859 0.98441406 -5.19140625 0.5859375 C-3 0 -3 0 0 0 Z " fill="#636161" transform="translate(235,336)"/>
<path d="M0 0 C3.3762789 0.65164888 6.5586296 1.44549971 9.8125 2.5625 C10.60269531 2.83191406 11.39289063 3.10132813 12.20703125 3.37890625 C12.79871094 3.58386719 13.39039063 3.78882813 14 4 C9.918016 15.10957549 5.5674978 26.08124787 1 37 C-4.29012124 32.59156563 -9.18808428 27.92440206 -14 23 C-12.72199484 19.55044666 -11.23881563 16.61909971 -9.1796875 13.57421875 C-8.64472656 12.77822266 -8.10976563 11.98222656 -7.55859375 11.16210938 C-7.00300781 10.34548828 -6.44742187 9.52886719 -5.875 8.6875 C-5.31167969 7.85154297 -4.74835938 7.01558594 -4.16796875 6.15429688 C-2.78279211 4.10000948 -1.39337781 2.04872962 0 0 Z " fill="#636161" transform="translate(289,336)"/>
<path d="M0 0 C0.66 0 1.32 0 2 0 C3.02706571 6.88508458 4.04092809 13.77202064 5.0456543 20.66040039 C5.38897184 23.00329529 5.73530447 25.34575044 6.0847168 27.68774414 C6.586563 31.05503933 7.07752873 34.42376942 7.56640625 37.79296875 C7.72468399 38.83897751 7.88296173 39.88498627 8.04603577 40.96269226 C8.18625656 41.94333145 8.32647736 42.92397064 8.47094727 43.93432617 C8.59752213 44.79370285 8.72409698 45.65307953 8.85450745 46.53849792 C9.14033288 51.37420854 7.98749695 54.51501007 5.0625 58.3125 C4.53785156 59.00988281 4.01320313 59.70726562 3.47265625 60.42578125 C2.74369141 61.20501953 2.74369141 61.20501953 2 62 C0 62 0 62 -1.83203125 60.65625 C-4.90538544 57.31011289 -6.91065565 54.29003669 -7.09277344 49.62207031 C-6.7171233 43.52844026 -5.64813037 37.52804264 -4.59667969 31.52050781 C-3.74032385 26.46786822 -3.04714878 21.39555604 -2.34301758 16.31982422 C-1.58698376 10.87624158 -0.79377618 5.43818545 0 0 Z " fill="#E2E2E2" transform="translate(415,371)"/>
<path d="M0 0 C1.44213867 1.76586914 1.44213867 1.76586914 2.91796875 4.03515625 C3.44970703 4.84404297 3.98144531 5.65292969 4.52929688 6.48632812 C5.07650391 7.33646484 5.62371094 8.18660156 6.1875 9.0625 C6.74630859 9.91650391 7.30511719 10.77050781 7.88085938 11.65039062 C9.26126202 13.76228869 10.6338885 15.87884054 12 18 C10.21799313 21.85027991 7.92324595 24.2799142 4.875 27.25 C3.96492188 28.14203125 3.05484375 29.0340625 2.1171875 29.953125 C1.06917969 30.96632813 1.06917969 30.96632813 0 32 C-2.38273791 29.61726209 -3.12819298 27.56756175 -4.3828125 24.44140625 C-5.04990234 22.77948242 -5.04990234 22.77948242 -5.73046875 21.08398438 C-6.19066406 19.92189453 -6.65085937 18.75980469 -7.125 17.5625 C-7.82689453 15.82516602 -7.82689453 15.82516602 -8.54296875 14.05273438 C-8.98511719 12.94349609 -9.42726563 11.83425781 -9.8828125 10.69140625 C-10.28902832 9.67248291 -10.69524414 8.65355957 -11.11376953 7.60375977 C-12 5 -12 5 -12 2 C-10.56656 1.46809459 -9.12804633 0.94984742 -7.6875 0.4375 C-6.48673828 0.00244141 -6.48673828 0.00244141 -5.26171875 -0.44140625 C-3 -1 -3 -1 0 0 Z " fill="#626060" transform="translate(74,302)"/>
<path d="M0 0 C1.6510403 0.39553053 3.2958515 0.81713897 4.9375 1.25 C5.85402344 1.48203125 6.77054688 1.7140625 7.71484375 1.953125 C10 3 10 3 10.7734375 4.69921875 C11.08727998 7.88634322 10.12988368 9.90793579 8.91015625 12.859375 C8.45576172 13.97441406 8.00136719 15.08945312 7.53320312 16.23828125 C7.04787109 17.39714844 6.56253906 18.55601562 6.0625 19.75 C5.34030273 21.51150391 5.34030273 21.51150391 4.60351562 23.30859375 C3.41228671 26.21000279 2.2108092 29.10671999 1 32 C-2.99241576 31.17612637 -4.87702645 29.6143393 -7.8125 26.75 C-8.62332031 25.98171875 -9.43414062 25.2134375 -10.26953125 24.421875 C-12 22 -12 22 -11.76464844 19.61157227 C-10.98499622 16.94875625 -10.02586975 15.09642457 -8.49609375 12.79296875 C-7.75649414 11.66665039 -7.75649414 11.66665039 -7.00195312 10.51757812 C-6.48568359 9.74865234 -5.96941406 8.97972656 -5.4375 8.1875 C-4.91736328 7.39923828 -4.39722656 6.61097656 -3.86132812 5.79882812 C-2.58123434 3.86107147 -1.2940192 1.92847323 0 0 Z " fill="#615F5F" transform="translate(124,301)"/>
<path d="M0 0 C2.609375 -0.2421875 2.609375 -0.2421875 5.75 0.125 C6.89339844 0.25003906 8.03679687 0.37507813 9.21484375 0.50390625 C10.46394531 0.66761719 11.71304687 0.83132813 13 1 C14.39711871 1.17591398 15.79425447 1.3516926 17.19140625 1.52734375 C20.79831553 1.99026711 24.39982796 2.48711242 28 3 C28 6.3 28 9.6 28 13 C15.79 13 3.58 13 -9 13 C-3 4 -3 4 0 0 Z " fill="#47C5C5" transform="translate(287,483)"/>
<path d="M0 0 C2.27660788 2.39414491 4.05599104 5.06233169 5.875 7.8125 C6.38546875 8.53759766 6.8959375 9.26269531 7.421875 10.00976562 C11.06962032 15.39758404 11.06962032 15.39758404 10.75805664 18.09350586 C9.62771547 20.93628661 7.73467807 22.62300323 5.5625 24.75 C4.75941406 25.54921875 3.95632813 26.3484375 3.12890625 27.171875 C1 29 1 29 -1 29 C-2.67826923 25.08820439 -4.34057804 21.16982376 -6 17.25 C-6.47695313 16.13882812 -6.95390625 15.02765625 -7.4453125 13.8828125 C-7.89648438 12.81289063 -8.34765625 11.74296875 -8.8125 10.640625 C-9.23144531 9.65610352 -9.65039062 8.67158203 -10.08203125 7.65722656 C-11 5 -11 5 -11 1 C-6.8751734 -0.6307454 -4.19891499 -1.65243644 0 0 Z " fill="#615F5F" transform="translate(392,298)"/>
<path d="M0 0 C7.68112262 1.26007945 15.34497226 2.58986331 23 4 C23 7.96 23 11.92 23 16 C13.1 16 3.2 16 -7 16 C-5 12 -5 12 -2.9375 9.125 C-0.93194841 5.89023936 -0.50165194 3.71325872 0 0 Z " fill="#B93B14" transform="translate(440,422)"/>
<path d="M0 0 C1.53202706 0.25195908 3.05257128 0.57596777 4.5625 0.9375 C5.80193359 1.22947266 5.80193359 1.22947266 7.06640625 1.52734375 C7.70449219 1.68332031 8.34257812 1.83929688 9 2 C10.46240849 5.82049265 9.49051262 7.97263738 7.91015625 11.640625 C7.45576172 12.71054687 7.00136719 13.78046875 6.53320312 14.8828125 C6.04787109 15.99398438 5.56253906 17.10515625 5.0625 18.25 C4.34030273 19.93996094 4.34030273 19.93996094 3.60351562 21.6640625 C2.4124158 24.44722644 1.210947 27.22542759 0 30 C-3.31115963 28.42400077 -5.66702538 26.68825694 -8.3125 24.125 C-9.03050781 23.44695312 -9.74851562 22.76890625 -10.48828125 22.0703125 C-12 20 -12 20 -11.73510742 18.09790039 C-10.97063688 15.9162015 -10.04496547 14.27422614 -8.75 12.36328125 C-8.3065625 11.70392578 -7.863125 11.04457031 -7.40625 10.36523438 C-6.9421875 9.68783203 -6.478125 9.01042969 -6 8.3125 C-5.5359375 7.62349609 -5.071875 6.93449219 -4.59375 6.22460938 C-1.18332067 1.18332067 -1.18332067 1.18332067 0 0 Z " fill="#626060" transform="translate(441,297)"/>
<path d="M0 0 C0.08564209 0.75095947 0.17128418 1.50191895 0.25952148 2.27563477 C0.65116608 5.70470663 1.04431991 9.13360387 1.4375 12.5625 C1.57220703 13.74392578 1.70691406 14.92535156 1.84570312 16.14257812 C2.49244697 21.77398188 3.15226479 27.39507107 4 33 C3.18208984 32.52820313 3.18208984 32.52820313 2.34765625 32.046875 C-2.97632512 29.02540181 -8.36322942 26.38530008 -14 24 C-14.65950611 16.87733398 -12.98383293 11.9460193 -9 6 C-3.45238095 0 -3.45238095 0 0 0 Z " fill="#B83A14" transform="translate(350,311)"/>
<path d="M0 0 C0.33 0 0.66 0 1 0 C1 26.73 1 53.46 1 81 C7.6 81 14.2 81 21 81 C21 84.3 21 87.6 21 91 C14.07 91 7.14 91 0 91 C0 60.97 0 30.94 0 0 Z " fill="#4FB9BB" transform="translate(331,405)"/>
<path d="M0 0 C5.28 0 10.56 0 16 0 C16 5.28 16 10.56 16 16 C10.72 16 5.44 16 0 16 C0 10.72 0 5.44 0 0 Z " fill="#000000" transform="translate(320,128)"/>
<path d="M0 0 C5.28 0 10.56 0 16 0 C16 5.28 16 10.56 16 16 C10.72 16 5.44 16 0 16 C0 10.72 0 5.44 0 0 Z " fill="#000000" transform="translate(288,128)"/>
<path d="M0 0 C5.28 0 10.56 0 16 0 C16 5.28 16 10.56 16 16 C10.72 16 5.44 16 0 16 C0 10.72 0 5.44 0 0 Z " fill="#000000" transform="translate(256,128)"/>
<path d="M0 0 C5.28 0 10.56 0 16 0 C16 5.28 16 10.56 16 16 C10.72 16 5.44 16 0 16 C0 10.72 0 5.44 0 0 Z " fill="#000000" transform="translate(192,128)"/>
<path d="M0 0 C5.28 0 10.56 0 16 0 C16 5.28 16 10.56 16 16 C10.72 16 5.44 16 0 16 C0 10.72 0 5.44 0 0 Z " fill="#000000" transform="translate(160,128)"/>
<path d="M0 0 C5.28 0 10.56 0 16 0 C16 5.28 16 10.56 16 16 C10.72 16 5.44 16 0 16 C0 10.72 0 5.44 0 0 Z " fill="#000000" transform="translate(416,96)"/>
<path d="M0 0 C5.28 0 10.56 0 16 0 C16 5.28 16 10.56 16 16 C10.72 16 5.44 16 0 16 C0 10.72 0 5.44 0 0 Z " fill="#000000" transform="translate(384,96)"/>
<path d="M0 0 C5.28 0 10.56 0 16 0 C16 5.28 16 10.56 16 16 C10.72 16 5.44 16 0 16 C0 10.72 0 5.44 0 0 Z " fill="#000000" transform="translate(352,96)"/>
<path d="M0 0 C5.28 0 10.56 0 16 0 C16 5.28 16 10.56 16 16 C10.72 16 5.44 16 0 16 C0 10.72 0 5.44 0 0 Z " fill="#000000" transform="translate(320,96)"/>
<path d="M0 0 C5.28 0 10.56 0 16 0 C16 5.28 16 10.56 16 16 C10.72 16 5.44 16 0 16 C0 10.72 0 5.44 0 0 Z " fill="#000000" transform="translate(288,96)"/>
<path d="M0 0 C5.28 0 10.56 0 16 0 C16 5.28 16 10.56 16 16 C10.72 16 5.44 16 0 16 C0 10.72 0 5.44 0 0 Z " fill="#000000" transform="translate(256,96)"/>
<path d="M0 0 C5.28 0 10.56 0 16 0 C16 5.28 16 10.56 16 16 C10.72 16 5.44 16 0 16 C0 10.72 0 5.44 0 0 Z " fill="#000000" transform="translate(192,96)"/>
<path d="M0 0 C5.28 0 10.56 0 16 0 C16 5.28 16 10.56 16 16 C10.72 16 5.44 16 0 16 C0 10.72 0 5.44 0 0 Z " fill="#000000" transform="translate(160,96)"/>
<path d="M0 0 C5.28 0 10.56 0 16 0 C16 5.28 16 10.56 16 16 C10.72 16 5.44 16 0 16 C0 10.72 0 5.44 0 0 Z " fill="#000000" transform="translate(128,96)"/>
<path d="M0 0 C5.28 0 10.56 0 16 0 C16 5.28 16 10.56 16 16 C10.72 16 5.44 16 0 16 C0 10.72 0 5.44 0 0 Z " fill="#000000" transform="translate(96,96)"/>
<path d="M0 0 C5.28 0 10.56 0 16 0 C16 5.28 16 10.56 16 16 C10.72 16 5.44 16 0 16 C0 10.72 0 5.44 0 0 Z " fill="#000000" transform="translate(416,64)"/>
<path d="M0 0 C5.28 0 10.56 0 16 0 C16 5.28 16 10.56 16 16 C10.72 16 5.44 16 0 16 C0 10.72 0 5.44 0 0 Z " fill="#000000" transform="translate(384,64)"/>
<path d="M0 0 C5.28 0 10.56 0 16 0 C16 5.28 16 10.56 16 16 C10.72 16 5.44 16 0 16 C0 10.72 0 5.44 0 0 Z " fill="#000000" transform="translate(352,64)"/>
<path d="M0 0 C5.28 0 10.56 0 16 0 C16 5.28 16 10.56 16 16 C10.72 16 5.44 16 0 16 C0 10.72 0 5.44 0 0 Z " fill="#000000" transform="translate(320,64)"/>
<path d="M0 0 C5.28 0 10.56 0 16 0 C16 5.28 16 10.56 16 16 C10.72 16 5.44 16 0 16 C0 10.72 0 5.44 0 0 Z " fill="#000000" transform="translate(288,64)"/>
<path d="M0 0 C5.28 0 10.56 0 16 0 C16 5.28 16 10.56 16 16 C10.72 16 5.44 16 0 16 C0 10.72 0 5.44 0 0 Z " fill="#000000" transform="translate(256,64)"/>
<path d="M0 0 C5.28 0 10.56 0 16 0 C16 5.28 16 10.56 16 16 C10.72 16 5.44 16 0 16 C0 10.72 0 5.44 0 0 Z " fill="#000000" transform="translate(192,64)"/>
<path d="M0 0 C5.28 0 10.56 0 16 0 C16 5.28 16 10.56 16 16 C10.72 16 5.44 16 0 16 C0 10.72 0 5.44 0 0 Z " fill="#000000" transform="translate(160,64)"/>
<path d="M0 0 C5.28 0 10.56 0 16 0 C16 5.28 16 10.56 16 16 C10.72 16 5.44 16 0 16 C0 10.72 0 5.44 0 0 Z " fill="#000000" transform="translate(128,64)"/>
<path d="M0 0 C5.28 0 10.56 0 16 0 C16 5.28 16 10.56 16 16 C10.72 16 5.44 16 0 16 C0 10.72 0 5.44 0 0 Z " fill="#000000" transform="translate(96,64)"/>
<path d="M0 0 C5.28 0 10.56 0 16 0 C16 5.28 16 10.56 16 16 C10.72 16 5.44 16 0 16 C0 10.72 0 5.44 0 0 Z " fill="#000000" transform="translate(416,32)"/>
<path d="M0 0 C5.28 0 10.56 0 16 0 C16 5.28 16 10.56 16 16 C10.72 16 5.44 16 0 16 C0 10.72 0 5.44 0 0 Z " fill="#000000" transform="translate(384,32)"/>
<path d="M0 0 C5.28 0 10.56 0 16 0 C16 5.28 16 10.56 16 16 C10.72 16 5.44 16 0 16 C0 10.72 0 5.44 0 0 Z " fill="#000000" transform="translate(352,32)"/>
<path d="M0 0 C5.28 0 10.56 0 16 0 C16 5.28 16 10.56 16 16 C10.72 16 5.44 16 0 16 C0 10.72 0 5.44 0 0 Z " fill="#000000" transform="translate(320,32)"/>
<path d="M0 0 C5.28 0 10.56 0 16 0 C16 5.28 16 10.56 16 16 C10.72 16 5.44 16 0 16 C0 10.72 0 5.44 0 0 Z " fill="#000000" transform="translate(288,32)"/>
<path d="M0 0 C5.28 0 10.56 0 16 0 C16 5.28 16 10.56 16 16 C10.72 16 5.44 16 0 16 C0 10.72 0 5.44 0 0 Z " fill="#000000" transform="translate(256,32)"/>
<path d="M0 0 C4.59058134 1.21790934 7.39588724 3.92570989 10.0625 7.8125 C10.14615758 11.49343362 9.12265499 12.72226751 7.0625 15.8125 C4.43552936 16.03387393 2.05356036 16.09412025 -0.5625 16 C-1.26890625 15.98646484 -1.9753125 15.97292969 -2.703125 15.95898438 C-4.44824128 15.9236104 -6.19296608 15.86980221 -7.9375 15.8125 C-9.99963925 11.44561688 -9.99963925 11.44561688 -9.73046875 8.703125 C-7.87605996 4.28177597 -4.58669291 1.26865974 0 0 Z " fill="#C3C0C0" transform="translate(261.9375,370.1875)"/>
<path d="M0 0 C5.61 0 11.22 0 17 0 C17 3.63 17 7.26 17 11 C11.39 11 5.78 11 0 11 C0 7.37 0 3.74 0 0 Z " fill="#BC3C14" transform="translate(479,427)"/>
<path d="M0 0 C3.90784736 1.04844685 6.40165447 3.28090011 8.5625 6.6875 C8.46634615 11.78365385 8.46634615 11.78365385 6.5625 13.6875 C4.37610547 13.76008946 2.18749611 13.77123783 0 13.75 C-1.79630859 13.73646484 -1.79630859 13.73646484 -3.62890625 13.72265625 C-4.55574219 13.71105469 -5.48257813 13.69945312 -6.4375 13.6875 C-8.4453125 9.9296875 -8.4453125 9.9296875 -8.375 7.75 C-6.62580568 3.90177249 -4.10998759 1.15922727 0 0 Z " fill="#BFBCBC" transform="translate(98.4375,332.3125)"/>
<path d="M0 0 C3.39706954 1.52868129 5.25242356 3.15026647 7.5 6.125 C7.3 11.325 7.3 11.325 5.5 13.125 C3.52486333 13.27626231 1.54321865 13.34673766 -0.4375 13.375 C-1.51902344 13.40078125 -2.60054688 13.4265625 -3.71484375 13.453125 C-4.63394531 13.34484375 -5.55304688 13.2365625 -6.5 13.125 C-8.5 10.125 -8.5 10.125 -8.4375 7.75 C-6.95460483 3.59789352 -4.64816018 0.23240801 0 0 Z " fill="#B7B4B4" transform="translate(416.5,326.875)"/>
<path d="M0 0 C0 4.95 0 9.9 0 15 C-2.97 14.505 -2.97 14.505 -6 14 C-8.48038907 10.2794164 -8.46337203 8.40203429 -8 4 C-5.35727941 0.31906775 -4.65584321 0 0 0 Z " fill="#E4BF9D" transform="translate(205,236)"/>
<path d="M0 0 C5 1 5 1 6.8125 2.125 C8.70271646 5.10955231 8.36799239 7.56540434 8 11 C6.8125 12.875 6.8125 12.875 5 14 C3.35 14.33 1.7 14.66 0 15 C0 10.05 0 5.1 0 0 Z " fill="#E9C3A0" transform="translate(319,236)"/>
<path d="M0 0 C5.2371134 1.30927835 5.2371134 1.30927835 7 4 C6.77669287 7.64734979 6.61627165 9.38372835 4 12 C2.68 12 1.36 12 0 12 C0 8.04 0 4.08 0 0 Z " fill="#E2BD9C" transform="translate(152,209)"/>
<path d="M0 0 C0 3.96 0 7.92 0 12 C-1.65 11.67 -3.3 11.34 -5 11 C-6.39935013 8.20129973 -6.25265405 6.09501208 -6 3 C-4.04062003 0.20088576 -3.50082948 0 0 0 Z " fill="#E7C19F" transform="translate(45,209)"/>
<path d="M0 0 C4 1 4 1 6 3 C5.625 6.625 5.625 6.625 5 10 C3.35 10.33 1.7 10.66 0 11 C0 7.37 0 3.74 0 0 Z " fill="#E4BF9D" transform="translate(468,207)"/>
<path d="M0 0 C0 3.63 0 7.26 0 11 C-1.65 10.67 -3.3 10.34 -5 10 C-6.34261242 3.53104925 -6.34261242 3.53104925 -4.75 1.0625 C-3 0 -3 0 0 0 Z " fill="#E4BF9D" transform="translate(364,207)"/>
</svg>
